<svg xmlns="http://www.w3.org/2000/svg" viewBox="-120.0 -50.0 780.0 510.0" xmlns:xlink="http://www.w3.org/1999/xlink">
<style>
.hover_modes_0:hover
{
    stroke-opacity: 0.6
}
.no_mouse_events
{
    pointer-events: none
}
.hover_labels_0:hover
{
    fill-opacity: 1.0
}
.no_mouse_events
{
    pointer-events: none
}
</style>
<g>
  <path d="M-120.0,-50.0H660.0V460.0H-120.0Z" fill="white" stroke="#000" stroke-width="0.025"/>
<text x="-70.0" y="20.0" font-style="normal" font-weight="normal" font-family="Tahoma" alignment-baseline="middle" text-anchor="end" stroke="none" fill="#000" fill-opacity="1.0" font-size="14" ><title>lhs</title>lhs</text><path d="M-55.0,-10.0Q-65.0 -10.0 -65.0 0.0L-65.0,0.0L-65.0,40.0Q-65.0 50.0 -55.0 50.0" fill="none" stroke="rgba(0, 100, 125, 1.0)" stroke-width="1" stroke-opacity="1.0" ></path>
<text x="-20" y="0" font-style="normal" font-weight="normal" font-family="Tahoma" alignment-baseline="middle" text-anchor="end" stroke="none" fill="#000" fill-opacity="1.0" font-size="14" ><title>0x1</title>0x1</text><text x="-20" y="20" font-style="normal" font-weight="normal" font-family="Tahoma" alignment-baseline="middle" text-anchor="end" stroke="none" fill="#000" fill-opacity="1.0" font-size="14" ><title>0x2</title>0x2</text><text x="-20" y="40" font-style="normal" font-weight="normal" font-family="Tahoma" alignment-baseline="middle" text-anchor="end" stroke="none" fill="#000" fill-opacity="1.0" font-size="14" ><title>0x4</title>0x4</text><text x="-70.0" y="80.0" font-style="normal" font-weight="normal" font-family="Tahoma" alignment-baseline="middle" text-anchor="end" stroke="none" fill="#000" fill-opacity="1.0" font-size="14" ><title>rhs</title>rhs</text><path d="M-55.0,50.0Q-65.0 50.0 -65.0 60.0L-65.0,60.0L-65.0,100.0Q-65.0 110.0 -55.0 110.0" fill="none" stroke="rgba(0, 100, 125, 1.0)" stroke-width="1" stroke-opacity="1.0" ></path>
<text x="-20" y="60" font-style="normal" font-weight="normal" font-family="Tahoma" alignment-baseline="middle" text-anchor="end" stroke="none" fill="#000" fill-opacity="1.0" font-size="14" ><title>0x1</title>0x1</text><text x="-20" y="80" font-style="normal" font-weight="normal" font-family="Tahoma" alignment-baseline="middle" text-anchor="end" stroke="none" fill="#000" fill-opacity="1.0" font-size="14" ><title>0x2</title>0x2</text><text x="-20" y="100" font-style="normal" font-weight="normal" font-family="Tahoma" alignment-baseline="middle" text-anchor="end" stroke="none" fill="#000" fill-opacity="1.0" font-size="14" ><title>0x4</title>0x4</text><text x="-70.0" y="140.0" font-style="normal" font-weight="normal" font-family="Tahoma" alignment-baseline="middle" text-anchor="end" stroke="none" fill="#000" fill-opacity="1.0" font-size="14" ><title>sum</title>sum</text><path d="M-55.0,110.0Q-65.0 110.0 -65.0 120.0L-65.0,120.0L-65.0,160.0Q-65.0 170.0 -55.0 170.0" fill="none" stroke="rgba(0, 100, 125, 1.0)" stroke-width="1" stroke-opacity="1.0" ></path>
<text x="-20" y="120" font-style="normal" font-weight="normal" font-family="Tahoma" alignment-baseline="middle" text-anchor="end" stroke="none" fill="#000" fill-opacity="1.0" font-size="14" ><title>0x1</title>0x1</text><text x="-20" y="140" font-style="normal" font-weight="normal" font-family="Tahoma" alignment-baseline="middle" text-anchor="end" stroke="none" fill="#000" fill-opacity="1.0" font-size="14" ><title>0x2</title>0x2</text><text x="-20" y="160" font-style="normal" font-weight="normal" font-family="Tahoma" alignment-baseline="middle" text-anchor="end" stroke="none" fill="#000" fill-opacity="1.0" font-size="14" ><title>0x4</title>0x4</text><text x="-70.0" y="210.0" font-style="normal" font-weight="normal" font-family="Tahoma" alignment-baseline="middle" text-anchor="end" stroke="none" fill="#000" fill-opacity="1.0" font-size="14" ><title>carry</title>carry</text><path d="M-55.0,170.0Q-65.0 170.0 -65.0 180.0L-65.0,180.0L-65.0,240.0Q-65.0 250.0 -55.0 250.0" fill="none" stroke="rgba(0, 100, 125, 1.0)" stroke-width="1" stroke-opacity="1.0" ></path>
<text x="-20" y="180" font-style="normal" font-weight="normal" font-family="Tahoma" alignment-baseline="middle" text-anchor="end" stroke="none" fill="#000" fill-opacity="1.0" font-size="14" ><title>0x1</title>0x1</text><text x="-20" y="200" font-style="normal" font-weight="normal" font-family="Tahoma" alignment-baseline="middle" text-anchor="end" stroke="none" fill="#000" fill-opacity="1.0" font-size="14" ><title>0x2</title>0x2</text><text x="-20" y="220" font-style="normal" font-weight="normal" font-family="Tahoma" alignment-baseline="middle" text-anchor="end" stroke="none" fill="#000" fill-opacity="1.0" font-size="14" ><title>0x4</title>0x4</text><text x="-20" y="240" font-style="normal" font-weight="normal" font-family="Tahoma" alignment-baseline="middle" text-anchor="end" stroke="none" fill="#000" fill-opacity="1.0" font-size="14" ><title>0x8</title>0x8</text><text x="-20" y="260" font-style="normal" font-weight="normal" font-family="Tahoma" alignment-baseline="middle" text-anchor="end" stroke="none" fill="#000" fill-opacity="1.0" font-size="14" ><title>0x1</title>0x1</text><text x="-20" y="280" font-style="normal" font-weight="normal" font-family="Tahoma" alignment-baseline="middle" text-anchor="end" stroke="none" fill="#000" fill-opacity="1.0" font-size="14" ><title>0x2</title>0x2</text><text x="-20" y="300" font-style="normal" font-weight="normal" font-family="Tahoma" alignment-baseline="middle" text-anchor="end" stroke="none" fill="#000" fill-opacity="1.0" font-size="14" ><title>0x4</title>0x4</text><text x="-20" y="320" font-style="normal" font-weight="normal" font-family="Tahoma" alignment-baseline="middle" text-anchor="end" stroke="none" fill="#000" fill-opacity="1.0" font-size="14" ><title>0x8</title>0x8</text><text x="-20" y="340" font-style="normal" font-weight="normal" font-family="Tahoma" alignment-baseline="middle" text-anchor="end" stroke="none" fill="#000" fill-opacity="1.0" font-size="14" ><title>0x10</title>0x10</text><text x="-20" y="360" font-style="normal" font-weight="normal" font-family="Tahoma" alignment-baseline="middle" text-anchor="end" stroke="none" fill="#000" fill-opacity="1.0" font-size="14" ><title>0x20</title>0x20</text><text x="-20" y="380" font-style="normal" font-weight="normal" font-family="Tahoma" alignment-baseline="middle" text-anchor="end" stroke="none" fill="#000" fill-opacity="1.0" font-size="14" ><title>0x40</title>0x40</text><text x="-20" y="400" font-style="normal" font-weight="normal" font-family="Tahoma" alignment-baseline="middle" text-anchor="end" stroke="none" fill="#000" fill-opacity="1.0" font-size="14" ><title>0x80</title>0x80</text><text x="-20" y="420" font-style="normal" font-weight="normal" font-family="Tahoma" alignment-baseline="middle" text-anchor="end" stroke="none" fill="#000" fill-opacity="1.0" font-size="14" ><title>0x100</title>0x100</text><path d="M-10.0,0L20,0" fill="none" stroke="#dddddd" stroke-width="1" stroke-opacity="1.0" ></path>
<path d="M20,0L640,0" fill="none" stroke="#000000" stroke-width="1" stroke-opacity="1.0" ></path>
<path d="M-10.0,20L20,20" fill="none" stroke="#dddddd" stroke-width="1" stroke-opacity="1.0" ></path>
<path d="M20,20L640,20" fill="none" stroke="#000000" stroke-width="1" stroke-opacity="1.0" ></path>
<path d="M-10.0,40L20,40" fill="none" stroke="#dddddd" stroke-width="1" stroke-opacity="1.0" ></path>
<path d="M20,40L640,40" fill="none" stroke="#000000" stroke-width="1" stroke-opacity="1.0" ></path>
<path d="M-10.0,60L20,60" fill="none" stroke="#dddddd" stroke-width="1" stroke-opacity="1.0" ></path>
<path d="M20,60L640,60" fill="none" stroke="#000000" stroke-width="1" stroke-opacity="1.0" ></path>
<path d="M-10.0,80L20,80" fill="none" stroke="#dddddd" stroke-width="1" stroke-opacity="1.0" ></path>
<path d="M20,80L640,80" fill="none" stroke="#000000" stroke-width="1" stroke-opacity="1.0" ></path>
<path d="M-10.0,100L20,100" fill="none" stroke="#dddddd" stroke-width="1" stroke-opacity="1.0" ></path>
<path d="M20,100L640,100" fill="none" stroke="#000000" stroke-width="1" stroke-opacity="1.0" ></path>
<path d="M-10.0,120L320,120" fill="none" stroke="#dddddd" stroke-width="1" stroke-opacity="1.0" ></path>
<path d="M320,120L640,120" fill="none" stroke="#000000" stroke-width="1" stroke-opacity="1.0" ></path>
<path d="M-10.0,140L340,140" fill="none" stroke="#dddddd" stroke-width="1" stroke-opacity="1.0" ></path>
<path d="M340,140L640,140" fill="none" stroke="#000000" stroke-width="1" stroke-opacity="1.0" ></path>
<path d="M-10.0,160L360,160" fill="none" stroke="#dddddd" stroke-width="1" stroke-opacity="1.0" ></path>
<path d="M360,160L640,160" fill="none" stroke="#000000" stroke-width="1" stroke-opacity="1.0" ></path>
<path d="M-10.0,180L640,180" fill="none" stroke="#dddddd" stroke-width="1" stroke-opacity="1.0" ></path>
<path d="M-10.0,200L80,200" fill="none" stroke="#dddddd" stroke-width="1" stroke-opacity="1.0" ></path>
<path d="M80,200L620,200" fill="none" stroke="#000000" stroke-width="1" stroke-opacity="1.0" ></path>
<path d="M620,200L640,200" fill="none" stroke="#dddddd" stroke-width="1" stroke-opacity="1.0" ></path>
<path d="M-10.0,220L160,220" fill="none" stroke="#dddddd" stroke-width="1" stroke-opacity="1.0" ></path>
<path d="M160,220L620,220" fill="none" stroke="#000000" stroke-width="1" stroke-opacity="1.0" ></path>
<path d="M620,220L640,220" fill="none" stroke="#dddddd" stroke-width="1" stroke-opacity="1.0" ></path>
<path d="M-10.0,240L240,240" fill="none" stroke="#dddddd" stroke-width="1" stroke-opacity="1.0" ></path>
<path d="M240,240L620,240" fill="none" stroke="#000000" stroke-width="1" stroke-opacity="1.0" ></path>
<path d="M620,240L640,240" fill="none" stroke="#dddddd" stroke-width="1" stroke-opacity="1.0" ></path>
<path d="M-10.0,260L640,260" fill="none" stroke="#dddddd" stroke-width="1" stroke-opacity="1.0" ></path>
<path d="M-10.0,280L640,280" fill="none" stroke="#dddddd" stroke-width="1" stroke-opacity="1.0" ></path>
<path d="M-10.0,300L640,300" fill="none" stroke="#dddddd" stroke-width="1" stroke-opacity="1.0" ></path>
<path d="M-10.0,320L640,320" fill="none" stroke="#dddddd" stroke-width="1" stroke-opacity="1.0" ></path>
<path d="M-10.0,340L640,340" fill="none" stroke="#dddddd" stroke-width="1" stroke-opacity="1.0" ></path>
<path d="M-10.0,360L640,360" fill="none" stroke="#dddddd" stroke-width="1" stroke-opacity="1.0" ></path>
<path d="M-10.0,380L640,380" fill="none" stroke="#dddddd" stroke-width="1" stroke-opacity="1.0" ></path>
<path d="M-10.0,400L640,400" fill="none" stroke="#dddddd" stroke-width="1" stroke-opacity="1.0" ></path>
<path d="M-10.0,420L640,420" fill="none" stroke="#dddddd" stroke-width="1" stroke-opacity="1.0" ></path>
<path d="M10.0,-10.0Q0 -10.0 0 0.0L0,0.0L0,40.0Q0 50.0 10.0 50.0" fill="none" stroke="rgba(0, 100, 125, 1.0)" stroke-width="1" stroke-opacity="1.0" ></path>
<text x="-20.0" y="5.000000000000001" font-style="normal" font-weight="normal" font-family="Tahoma" alignment-baseline="middle" text-anchor="middle" stroke="none" fill="#888" fill-opacity="1.0" font-size="7"  transform="rotate(-90)" ><title>lhs</title>lhs</text><path d="M10.0,50.0Q0 50.0 0 60.0L0,60.0L0,100.0Q0 110.0 10.0 110.0" fill="none" stroke="rgba(0, 100, 125, 1.0)" stroke-width="1" stroke-opacity="1.0" ></path>
<text x="-80.0" y="5.000000000000005" font-style="normal" font-weight="normal" font-family="Tahoma" alignment-baseline="middle" text-anchor="middle" stroke="none" fill="#888" fill-opacity="1.0" font-size="7"  transform="rotate(-90)" ><title>rhs</title>rhs</text><rect x="16.0" y="-8.0" width="9.6" height="16.0" rx="0" ry="0" fill="white" stroke="none" fill-opacity="1.0" stroke-opacity="1.0" stroke-width="2" ></rect>
<path d="M16.0,-4.0L25.6,0L16.0,4.0" fill="none" stroke="black" stroke-width="2" stroke-opacity="1.0" ></path>
<text x="14.0" y="0" font-style="normal" font-weight="normal" font-family="Tahoma" alignment-baseline="middle" text-anchor="middle" stroke="none" fill="#888" fill-opacity="1.0" font-size="7" ><title>0</title>0</text><rect x="16.0" y="12.0" width="9.6" height="16.0" rx="0" ry="0" fill="#c8ff90" stroke="none" fill-opacity="1.0" stroke-opacity="1.0" stroke-width="2" ></rect>
<path d="M16.0,16.0L25.6,20L16.0,24.0" fill="none" stroke="black" stroke-width="2" stroke-opacity="1.0" ></path>
<text x="14.0" y="20" font-style="normal" font-weight="normal" font-family="Tahoma" alignment-baseline="middle" text-anchor="middle" stroke="none" fill="#888" fill-opacity="1.0" font-size="7" ><title>1</title>1</text><rect x="16.0" y="32.0" width="9.6" height="16.0" rx="0" ry="0" fill="#c8ff90" stroke="none" fill-opacity="1.0" stroke-opacity="1.0" stroke-width="2" ></rect>
<path d="M16.0,36.0L25.6,40L16.0,44.0" fill="none" stroke="black" stroke-width="2" stroke-opacity="1.0" ></path>
<text x="14.0" y="40" font-style="normal" font-weight="normal" font-family="Tahoma" alignment-baseline="middle" text-anchor="middle" stroke="none" fill="#888" fill-opacity="1.0" font-size="7" ><title>1</title>1</text><text x="20" y="-9.0" font-style="normal" font-weight="normal" font-family="Tahoma" alignment-baseline="middle" text-anchor="middle" stroke="none" fill="blue" fill-opacity="1.0" font-size="7" ><title>6</title>6</text><rect x="16.0" y="52.0" width="9.6" height="16.0" rx="0" ry="0" fill="#c8ff90" stroke="none" fill-opacity="1.0" stroke-opacity="1.0" stroke-width="2" ></rect>
<path d="M16.0,56.0L25.6,60L16.0,64.0" fill="none" stroke="black" stroke-width="2" stroke-opacity="1.0" ></path>
<text x="14.0" y="60" font-style="normal" font-weight="normal" font-family="Tahoma" alignment-baseline="middle" text-anchor="middle" stroke="none" fill="#888" fill-opacity="1.0" font-size="7" ><title>1</title>1</text><rect x="16.0" y="72.0" width="9.6" height="16.0" rx="0" ry="0" fill="white" stroke="none" fill-opacity="1.0" stroke-opacity="1.0" stroke-width="2" ></rect>
<path d="M16.0,76.0L25.6,80L16.0,84.0" fill="none" stroke="black" stroke-width="2" stroke-opacity="1.0" ></path>
<text x="14.0" y="80" font-style="normal" font-weight="normal" font-family="Tahoma" alignment-baseline="middle" text-anchor="middle" stroke="none" fill="#888" fill-opacity="1.0" font-size="7" ><title>0</title>0</text><rect x="16.0" y="92.0" width="9.6" height="16.0" rx="0" ry="0" fill="white" stroke="none" fill-opacity="1.0" stroke-opacity="1.0" stroke-width="2" ></rect>
<path d="M16.0,96.0L25.6,100L16.0,104.0" fill="none" stroke="black" stroke-width="2" stroke-opacity="1.0" ></path>
<text x="14.0" y="100" font-style="normal" font-weight="normal" font-family="Tahoma" alignment-baseline="middle" text-anchor="middle" stroke="none" fill="#888" fill-opacity="1.0" font-size="7" ><title>0</title>0</text><text x="20" y="51.0" font-style="normal" font-weight="normal" font-family="Tahoma" alignment-baseline="middle" text-anchor="middle" stroke="none" fill="blue" fill-opacity="1.0" font-size="7" ><title>1</title>1</text><path d="M70.0,110.0Q60 110.0 60 120.0L60,120.0L60,160.0Q60 170.0 70.0 170.0" fill="none" stroke="rgba(0, 100, 125, 1.0)" stroke-width="1" stroke-opacity="1.0" ></path>
<text x="-140.0" y="65.00000000000001" font-style="normal" font-weight="normal" font-family="Tahoma" alignment-baseline="middle" text-anchor="middle" stroke="none" fill="#888" fill-opacity="1.0" font-size="7"  transform="rotate(-90)" ><title>sum</title>sum</text><path d="M70.0,170.0Q60 170.0 60 180.0L60,180.0L60,240.0Q60 250.0 70.0 250.0" fill="none" stroke="rgba(0, 100, 125, 1.0)" stroke-width="1" stroke-opacity="1.0" ></path>
<text x="-210.0" y="65.00000000000001" font-style="normal" font-weight="normal" font-family="Tahoma" alignment-baseline="middle" text-anchor="middle" stroke="none" fill="#888" fill-opacity="1.0" font-size="7"  transform="rotate(-90)" ><title>carry</title>carry</text><path d="M80,0L80,200" fill="none" stroke="black" stroke-width="2" stroke-opacity="1.0" ></path>
<path d="M77.0,0a3.0,3.0 0 1,0  6.0,0a3.0,3.0 0 1,0 -6.0,0Z" fill="black" stroke="none" stroke-width="1.5" fill-opacity="1.0"></path>
<path d="M77.0,60a3.0,3.0 0 1,0  6.0,0a3.0,3.0 0 1,0 -6.0,0Z" fill="black" stroke="none" stroke-width="1.5" fill-opacity="1.0"></path>
<path d="M72.0,200a8.0,8.0 0 1,0  16.0,0a8.0,8.0 0 1,0 -16.0,0Z" fill="white" stroke="none" stroke-width="2" fill-opacity="1.0"></path>
<path d="M72.0,200a8.0,8.0 0 1,0  16.0,0a8.0,8.0 0 1,0 -16.0,0Z" fill="none" stroke="black" stroke-width="2" stroke-opacity="1.0" ></path>
<path d="M72.0,200L88.0,200M80,192.0L80,208.0" fill="none" stroke="black" stroke-width="2" stroke-opacity="1.0" ></path>
<path d="M100,0L100,60" fill="none" stroke="black" stroke-width="2" stroke-opacity="1.0" ></path>
<path d="M97.0,0a3.0,3.0 0 1,0  6.0,0a3.0,3.0 0 1,0 -6.0,0Z" fill="black" stroke="none" stroke-width="1.5" fill-opacity="1.0"></path>
<path d="M92.0,60a8.0,8.0 0 1,0  16.0,0a8.0,8.0 0 1,0 -16.0,0Z" fill="white" stroke="none" stroke-width="2" fill-opacity="1.0"></path>
<path d="M92.0,60a8.0,8.0 0 1,0  16.0,0a8.0,8.0 0 1,0 -16.0,0Z" fill="none" stroke="black" stroke-width="2" stroke-opacity="1.0" ></path>
<path d="M92.0,60L108.0,60M100,52.0L100,68.0" fill="none" stroke="black" stroke-width="2" stroke-opacity="1.0" ></path>
<path d="M120,60L120,200" fill="none" stroke="black" stroke-width="2" stroke-opacity="1.0" ></path>
<path d="M117.0,60a3.0,3.0 0 1,0  6.0,0a3.0,3.0 0 1,0 -6.0,0Z" fill="black" stroke="none" stroke-width="1.5" fill-opacity="1.0"></path>
<path d="M117.0,180a3.0,3.0 0 1,0  6.0,0a3.0,3.0 0 1,0 -6.0,0Z" fill="black" stroke="none" stroke-width="1.5" fill-opacity="1.0"></path>
<path d="M112.0,200a8.0,8.0 0 1,0  16.0,0a8.0,8.0 0 1,0 -16.0,0Z" fill="white" stroke="none" stroke-width="2" fill-opacity="1.0"></path>
<path d="M112.0,200a8.0,8.0 0 1,0  16.0,0a8.0,8.0 0 1,0 -16.0,0Z" fill="none" stroke="black" stroke-width="2" stroke-opacity="1.0" ></path>
<path d="M112.0,200L128.0,200M120,192.0L120,208.0" fill="none" stroke="black" stroke-width="2" stroke-opacity="1.0" ></path>
<path d="M140,60L140,180" fill="none" stroke="black" stroke-width="2" stroke-opacity="1.0" ></path>
<path d="M137.0,180a3.0,3.0 0 1,0  6.0,0a3.0,3.0 0 1,0 -6.0,0Z" fill="black" stroke="none" stroke-width="1.5" fill-opacity="1.0"></path>
<path d="M132.0,60a8.0,8.0 0 1,0  16.0,0a8.0,8.0 0 1,0 -16.0,0Z" fill="white" stroke="none" stroke-width="2" fill-opacity="1.0"></path>
<path d="M132.0,60a8.0,8.0 0 1,0  16.0,0a8.0,8.0 0 1,0 -16.0,0Z" fill="none" stroke="black" stroke-width="2" stroke-opacity="1.0" ></path>
<path d="M132.0,60L148.0,60M140,52.0L140,68.0" fill="none" stroke="black" stroke-width="2" stroke-opacity="1.0" ></path>
<path d="M160,20L160,220" fill="none" stroke="black" stroke-width="2" stroke-opacity="1.0" ></path>
<path d="M157.0,20a3.0,3.0 0 1,0  6.0,0a3.0,3.0 0 1,0 -6.0,0Z" fill="black" stroke="none" stroke-width="1.5" fill-opacity="1.0"></path>
<path d="M157.0,80a3.0,3.0 0 1,0  6.0,0a3.0,3.0 0 1,0 -6.0,0Z" fill="black" stroke="none" stroke-width="1.5" fill-opacity="1.0"></path>
<path d="M152.0,220a8.0,8.0 0 1,0  16.0,0a8.0,8.0 0 1,0 -16.0,0Z" fill="white" stroke="none" stroke-width="2" fill-opacity="1.0"></path>
<path d="M152.0,220a8.0,8.0 0 1,0  16.0,0a8.0,8.0 0 1,0 -16.0,0Z" fill="none" stroke="black" stroke-width="2" stroke-opacity="1.0" ></path>
<path d="M152.0,220L168.0,220M160,212.0L160,228.0" fill="none" stroke="black" stroke-width="2" stroke-opacity="1.0" ></path>
<path d="M180,20L180,80" fill="none" stroke="black" stroke-width="2" stroke-opacity="1.0" ></path>
<path d="M177.0,20a3.0,3.0 0 1,0  6.0,0a3.0,3.0 0 1,0 -6.0,0Z" fill="black" stroke="none" stroke-width="1.5" fill-opacity="1.0"></path>
<path d="M172.0,80a8.0,8.0 0 1,0  16.0,0a8.0,8.0 0 1,0 -16.0,0Z" fill="white" stroke="none" stroke-width="2" fill-opacity="1.0"></path>
<path d="M172.0,80a8.0,8.0 0 1,0  16.0,0a8.0,8.0 0 1,0 -16.0,0Z" fill="none" stroke="black" stroke-width="2" stroke-opacity="1.0" ></path>
<path d="M172.0,80L188.0,80M180,72.0L180,88.0" fill="none" stroke="black" stroke-width="2" stroke-opacity="1.0" ></path>
<path d="M200,80L200,220" fill="none" stroke="black" stroke-width="2" stroke-opacity="1.0" ></path>
<path d="M197.0,80a3.0,3.0 0 1,0  6.0,0a3.0,3.0 0 1,0 -6.0,0Z" fill="black" stroke="none" stroke-width="1.5" fill-opacity="1.0"></path>
<path d="M197.0,200a3.0,3.0 0 1,0  6.0,0a3.0,3.0 0 1,0 -6.0,0Z" fill="black" stroke="none" stroke-width="1.5" fill-opacity="1.0"></path>
<path d="M192.0,220a8.0,8.0 0 1,0  16.0,0a8.0,8.0 0 1,0 -16.0,0Z" fill="white" stroke="none" stroke-width="2" fill-opacity="1.0"></path>
<path d="M192.0,220a8.0,8.0 0 1,0  16.0,0a8.0,8.0 0 1,0 -16.0,0Z" fill="none" stroke="black" stroke-width="2" stroke-opacity="1.0" ></path>
<path d="M192.0,220L208.0,220M200,212.0L200,228.0" fill="none" stroke="black" stroke-width="2" stroke-opacity="1.0" ></path>
<path d="M220,80L220,200" fill="none" stroke="black" stroke-width="2" stroke-opacity="1.0" ></path>
<path d="M217.0,200a3.0,3.0 0 1,0  6.0,0a3.0,3.0 0 1,0 -6.0,0Z" fill="black" stroke="none" stroke-width="1.5" fill-opacity="1.0"></path>
<path d="M212.0,80a8.0,8.0 0 1,0  16.0,0a8.0,8.0 0 1,0 -16.0,0Z" fill="white" stroke="none" stroke-width="2" fill-opacity="1.0"></path>
<path d="M212.0,80a8.0,8.0 0 1,0  16.0,0a8.0,8.0 0 1,0 -16.0,0Z" fill="none" stroke="black" stroke-width="2" stroke-opacity="1.0" ></path>
<path d="M212.0,80L228.0,80M220,72.0L220,88.0" fill="none" stroke="black" stroke-width="2" stroke-opacity="1.0" ></path>
<path d="M240,40L240,240" fill="none" stroke="black" stroke-width="2" stroke-opacity="1.0" ></path>
<path d="M237.0,40a3.0,3.0 0 1,0  6.0,0a3.0,3.0 0 1,0 -6.0,0Z" fill="black" stroke="none" stroke-width="1.5" fill-opacity="1.0"></path>
<path d="M237.0,100a3.0,3.0 0 1,0  6.0,0a3.0,3.0 0 1,0 -6.0,0Z" fill="black" stroke="none" stroke-width="1.5" fill-opacity="1.0"></path>
<path d="M232.0,240a8.0,8.0 0 1,0  16.0,0a8.0,8.0 0 1,0 -16.0,0Z" fill="white" stroke="none" stroke-width="2" fill-opacity="1.0"></path>
<path d="M232.0,240a8.0,8.0 0 1,0  16.0,0a8.0,8.0 0 1,0 -16.0,0Z" fill="none" stroke="black" stroke-width="2" stroke-opacity="1.0" ></path>
<path d="M232.0,240L248.0,240M240,232.0L240,248.0" fill="none" stroke="black" stroke-width="2" stroke-opacity="1.0" ></path>
<path d="M260,40L260,100" fill="none" stroke="black" stroke-width="2" stroke-opacity="1.0" ></path>
<path d="M257.0,40a3.0,3.0 0 1,0  6.0,0a3.0,3.0 0 1,0 -6.0,0Z" fill="black" stroke="none" stroke-width="1.5" fill-opacity="1.0"></path>
<path d="M252.0,100a8.0,8.0 0 1,0  16.0,0a8.0,8.0 0 1,0 -16.0,0Z" fill="white" stroke="none" stroke-width="2" fill-opacity="1.0"></path>
<path d="M252.0,100a8.0,8.0 0 1,0  16.0,0a8.0,8.0 0 1,0 -16.0,0Z" fill="none" stroke="black" stroke-width="2" stroke-opacity="1.0" ></path>
<path d="M252.0,100L268.0,100M260,92.0L260,108.0" fill="none" stroke="black" stroke-width="2" stroke-opacity="1.0" ></path>
<path d="M280,100L280,240" fill="none" stroke="black" stroke-width="2" stroke-opacity="1.0" ></path>
<path d="M277.0,100a3.0,3.0 0 1,0  6.0,0a3.0,3.0 0 1,0 -6.0,0Z" fill="black" stroke="none" stroke-width="1.5" fill-opacity="1.0"></path>
<path d="M277.0,220a3.0,3.0 0 1,0  6.0,0a3.0,3.0 0 1,0 -6.0,0Z" fill="black" stroke="none" stroke-width="1.5" fill-opacity="1.0"></path>
<path d="M272.0,240a8.0,8.0 0 1,0  16.0,0a8.0,8.0 0 1,0 -16.0,0Z" fill="white" stroke="none" stroke-width="2" fill-opacity="1.0"></path>
<path d="M272.0,240a8.0,8.0 0 1,0  16.0,0a8.0,8.0 0 1,0 -16.0,0Z" fill="none" stroke="black" stroke-width="2" stroke-opacity="1.0" ></path>
<path d="M272.0,240L288.0,240M280,232.0L280,248.0" fill="none" stroke="black" stroke-width="2" stroke-opacity="1.0" ></path>
<path d="M300,100L300,220" fill="none" stroke="black" stroke-width="2" stroke-opacity="1.0" ></path>
<path d="M297.0,220a3.0,3.0 0 1,0  6.0,0a3.0,3.0 0 1,0 -6.0,0Z" fill="black" stroke="none" stroke-width="1.5" fill-opacity="1.0"></path>
<path d="M292.0,100a8.0,8.0 0 1,0  16.0,0a8.0,8.0 0 1,0 -16.0,0Z" fill="white" stroke="none" stroke-width="2" fill-opacity="1.0"></path>
<path d="M292.0,100a8.0,8.0 0 1,0  16.0,0a8.0,8.0 0 1,0 -16.0,0Z" fill="none" stroke="black" stroke-width="2" stroke-opacity="1.0" ></path>
<path d="M292.0,100L308.0,100M300,92.0L300,108.0" fill="none" stroke="black" stroke-width="2" stroke-opacity="1.0" ></path>
<path d="M320,60L320,120" fill="none" stroke="black" stroke-width="2" stroke-opacity="1.0" ></path>
<path d="M317.0,60a3.0,3.0 0 1,0  6.0,0a3.0,3.0 0 1,0 -6.0,0Z" fill="black" stroke="none" stroke-width="1.5" fill-opacity="1.0"></path>
<path d="M312.0,120a8.0,8.0 0 1,0  16.0,0a8.0,8.0 0 1,0 -16.0,0Z" fill="white" stroke="none" stroke-width="2" fill-opacity="1.0"></path>
<path d="M312.0,120a8.0,8.0 0 1,0  16.0,0a8.0,8.0 0 1,0 -16.0,0Z" fill="none" stroke="black" stroke-width="2" stroke-opacity="1.0" ></path>
<path d="M312.0,120L328.0,120M320,112.0L320,128.0" fill="none" stroke="black" stroke-width="2" stroke-opacity="1.0" ></path>
<path d="M340,80L340,140" fill="none" stroke="black" stroke-width="2" stroke-opacity="1.0" ></path>
<path d="M337.0,80a3.0,3.0 0 1,0  6.0,0a3.0,3.0 0 1,0 -6.0,0Z" fill="black" stroke="none" stroke-width="1.5" fill-opacity="1.0"></path>
<path d="M332.0,140a8.0,8.0 0 1,0  16.0,0a8.0,8.0 0 1,0 -16.0,0Z" fill="white" stroke="none" stroke-width="2" fill-opacity="1.0"></path>
<path d="M332.0,140a8.0,8.0 0 1,0  16.0,0a8.0,8.0 0 1,0 -16.0,0Z" fill="none" stroke="black" stroke-width="2" stroke-opacity="1.0" ></path>
<path d="M332.0,140L348.0,140M340,132.0L340,148.0" fill="none" stroke="black" stroke-width="2" stroke-opacity="1.0" ></path>
<path d="M360,100L360,160" fill="none" stroke="black" stroke-width="2" stroke-opacity="1.0" ></path>
<path d="M357.0,100a3.0,3.0 0 1,0  6.0,0a3.0,3.0 0 1,0 -6.0,0Z" fill="black" stroke="none" stroke-width="1.5" fill-opacity="1.0"></path>
<path d="M352.0,160a8.0,8.0 0 1,0  16.0,0a8.0,8.0 0 1,0 -16.0,0Z" fill="white" stroke="none" stroke-width="2" fill-opacity="1.0"></path>
<path d="M352.0,160a8.0,8.0 0 1,0  16.0,0a8.0,8.0 0 1,0 -16.0,0Z" fill="none" stroke="black" stroke-width="2" stroke-opacity="1.0" ></path>
<path d="M352.0,160L368.0,160M360,152.0L360,168.0" fill="none" stroke="black" stroke-width="2" stroke-opacity="1.0" ></path>
<path d="M380,100L380,220" fill="none" stroke="black" stroke-width="2" stroke-opacity="1.0" ></path>
<path d="M377.0,220a3.0,3.0 0 1,0  6.0,0a3.0,3.0 0 1,0 -6.0,0Z" fill="black" stroke="none" stroke-width="1.5" fill-opacity="1.0"></path>
<path d="M372.0,100a8.0,8.0 0 1,0  16.0,0a8.0,8.0 0 1,0 -16.0,0Z" fill="white" stroke="none" stroke-width="2" fill-opacity="1.0"></path>
<path d="M372.0,100a8.0,8.0 0 1,0  16.0,0a8.0,8.0 0 1,0 -16.0,0Z" fill="none" stroke="black" stroke-width="2" stroke-opacity="1.0" ></path>
<path d="M372.0,100L388.0,100M380,92.0L380,108.0" fill="none" stroke="black" stroke-width="2" stroke-opacity="1.0" ></path>
<path d="M400,100L400,240" fill="none" stroke="black" stroke-width="2" stroke-opacity="1.0" ></path>
<path d="M397.0,100a3.0,3.0 0 1,0  6.0,0a3.0,3.0 0 1,0 -6.0,0Z" fill="black" stroke="none" stroke-width="1.5" fill-opacity="1.0"></path>
<path d="M397.0,220a3.0,3.0 0 1,0  6.0,0a3.0,3.0 0 1,0 -6.0,0Z" fill="black" stroke="none" stroke-width="1.5" fill-opacity="1.0"></path>
<path d="M392.0,240a8.0,8.0 0 1,0  16.0,0a8.0,8.0 0 1,0 -16.0,0Z" fill="white" stroke="none" stroke-width="2" fill-opacity="1.0"></path>
<path d="M392.0,240a8.0,8.0 0 1,0  16.0,0a8.0,8.0 0 1,0 -16.0,0Z" fill="none" stroke="black" stroke-width="2" stroke-opacity="1.0" ></path>
<path d="M392.0,240L408.0,240M400,232.0L400,248.0" fill="none" stroke="black" stroke-width="2" stroke-opacity="1.0" ></path>
<path d="M420,40L420,100" fill="none" stroke="black" stroke-width="2" stroke-opacity="1.0" ></path>
<path d="M417.0,40a3.0,3.0 0 1,0  6.0,0a3.0,3.0 0 1,0 -6.0,0Z" fill="black" stroke="none" stroke-width="1.5" fill-opacity="1.0"></path>
<path d="M412.0,100a8.0,8.0 0 1,0  16.0,0a8.0,8.0 0 1,0 -16.0,0Z" fill="white" stroke="none" stroke-width="2" fill-opacity="1.0"></path>
<path d="M412.0,100a8.0,8.0 0 1,0  16.0,0a8.0,8.0 0 1,0 -16.0,0Z" fill="none" stroke="black" stroke-width="2" stroke-opacity="1.0" ></path>
<path d="M412.0,100L428.0,100M420,92.0L420,108.0" fill="none" stroke="black" stroke-width="2" stroke-opacity="1.0" ></path>
<path d="M440,40L440,240" fill="none" stroke="black" stroke-width="2" stroke-opacity="1.0" ></path>
<path d="M437.0,40a3.0,3.0 0 1,0  6.0,0a3.0,3.0 0 1,0 -6.0,0Z" fill="black" stroke="none" stroke-width="1.5" fill-opacity="1.0"></path>
<path d="M437.0,100a3.0,3.0 0 1,0  6.0,0a3.0,3.0 0 1,0 -6.0,0Z" fill="black" stroke="none" stroke-width="1.5" fill-opacity="1.0"></path>
<path d="M432.0,240a8.0,8.0 0 1,0  16.0,0a8.0,8.0 0 1,0 -16.0,0Z" fill="white" stroke="none" stroke-width="2" fill-opacity="1.0"></path>
<path d="M432.0,240a8.0,8.0 0 1,0  16.0,0a8.0,8.0 0 1,0 -16.0,0Z" fill="none" stroke="black" stroke-width="2" stroke-opacity="1.0" ></path>
<path d="M432.0,240L448.0,240M440,232.0L440,248.0" fill="none" stroke="black" stroke-width="2" stroke-opacity="1.0" ></path>
<path d="M460,80L460,200" fill="none" stroke="black" stroke-width="2" stroke-opacity="1.0" ></path>
<path d="M457.0,200a3.0,3.0 0 1,0  6.0,0a3.0,3.0 0 1,0 -6.0,0Z" fill="black" stroke="none" stroke-width="1.5" fill-opacity="1.0"></path>
<path d="M452.0,80a8.0,8.0 0 1,0  16.0,0a8.0,8.0 0 1,0 -16.0,0Z" fill="white" stroke="none" stroke-width="2" fill-opacity="1.0"></path>
<path d="M452.0,80a8.0,8.0 0 1,0  16.0,0a8.0,8.0 0 1,0 -16.0,0Z" fill="none" stroke="black" stroke-width="2" stroke-opacity="1.0" ></path>
<path d="M452.0,80L468.0,80M460,72.0L460,88.0" fill="none" stroke="black" stroke-width="2" stroke-opacity="1.0" ></path>
<path d="M480,80L480,220" fill="none" stroke="black" stroke-width="2" stroke-opacity="1.0" ></path>
<path d="M477.0,80a3.0,3.0 0 1,0  6.0,0a3.0,3.0 0 1,0 -6.0,0Z" fill="black" stroke="none" stroke-width="1.5" fill-opacity="1.0"></path>
<path d="M477.0,200a3.0,3.0 0 1,0  6.0,0a3.0,3.0 0 1,0 -6.0,0Z" fill="black" stroke="none" stroke-width="1.5" fill-opacity="1.0"></path>
<path d="M472.0,220a8.0,8.0 0 1,0  16.0,0a8.0,8.0 0 1,0 -16.0,0Z" fill="white" stroke="none" stroke-width="2" fill-opacity="1.0"></path>
<path d="M472.0,220a8.0,8.0 0 1,0  16.0,0a8.0,8.0 0 1,0 -16.0,0Z" fill="none" stroke="black" stroke-width="2" stroke-opacity="1.0" ></path>
<path d="M472.0,220L488.0,220M480,212.0L480,228.0" fill="none" stroke="black" stroke-width="2" stroke-opacity="1.0" ></path>
<path d="M500,20L500,80" fill="none" stroke="black" stroke-width="2" stroke-opacity="1.0" ></path>
<path d="M497.0,20a3.0,3.0 0 1,0  6.0,0a3.0,3.0 0 1,0 -6.0,0Z" fill="black" stroke="none" stroke-width="1.5" fill-opacity="1.0"></path>
<path d="M492.0,80a8.0,8.0 0 1,0  16.0,0a8.0,8.0 0 1,0 -16.0,0Z" fill="white" stroke="none" stroke-width="2" fill-opacity="1.0"></path>
<path d="M492.0,80a8.0,8.0 0 1,0  16.0,0a8.0,8.0 0 1,0 -16.0,0Z" fill="none" stroke="black" stroke-width="2" stroke-opacity="1.0" ></path>
<path d="M492.0,80L508.0,80M500,72.0L500,88.0" fill="none" stroke="black" stroke-width="2" stroke-opacity="1.0" ></path>
<path d="M520,20L520,220" fill="none" stroke="black" stroke-width="2" stroke-opacity="1.0" ></path>
<path d="M517.0,20a3.0,3.0 0 1,0  6.0,0a3.0,3.0 0 1,0 -6.0,0Z" fill="black" stroke="none" stroke-width="1.5" fill-opacity="1.0"></path>
<path d="M517.0,80a3.0,3.0 0 1,0  6.0,0a3.0,3.0 0 1,0 -6.0,0Z" fill="black" stroke="none" stroke-width="1.5" fill-opacity="1.0"></path>
<path d="M512.0,220a8.0,8.0 0 1,0  16.0,0a8.0,8.0 0 1,0 -16.0,0Z" fill="white" stroke="none" stroke-width="2" fill-opacity="1.0"></path>
<path d="M512.0,220a8.0,8.0 0 1,0  16.0,0a8.0,8.0 0 1,0 -16.0,0Z" fill="none" stroke="black" stroke-width="2" stroke-opacity="1.0" ></path>
<path d="M512.0,220L528.0,220M520,212.0L520,228.0" fill="none" stroke="black" stroke-width="2" stroke-opacity="1.0" ></path>
<path d="M540,60L540,180" fill="none" stroke="black" stroke-width="2" stroke-opacity="1.0" ></path>
<path d="M537.0,180a3.0,3.0 0 1,0  6.0,0a3.0,3.0 0 1,0 -6.0,0Z" fill="black" stroke="none" stroke-width="1.5" fill-opacity="1.0"></path>
<path d="M532.0,60a8.0,8.0 0 1,0  16.0,0a8.0,8.0 0 1,0 -16.0,0Z" fill="white" stroke="none" stroke-width="2" fill-opacity="1.0"></path>
<path d="M532.0,60a8.0,8.0 0 1,0  16.0,0a8.0,8.0 0 1,0 -16.0,0Z" fill="none" stroke="black" stroke-width="2" stroke-opacity="1.0" ></path>
<path d="M532.0,60L548.0,60M540,52.0L540,68.0" fill="none" stroke="black" stroke-width="2" stroke-opacity="1.0" ></path>
<path d="M560,60L560,200" fill="none" stroke="black" stroke-width="2" stroke-opacity="1.0" ></path>
<path d="M557.0,60a3.0,3.0 0 1,0  6.0,0a3.0,3.0 0 1,0 -6.0,0Z" fill="black" stroke="none" stroke-width="1.5" fill-opacity="1.0"></path>
<path d="M557.0,180a3.0,3.0 0 1,0  6.0,0a3.0,3.0 0 1,0 -6.0,0Z" fill="black" stroke="none" stroke-width="1.5" fill-opacity="1.0"></path>
<path d="M552.0,200a8.0,8.0 0 1,0  16.0,0a8.0,8.0 0 1,0 -16.0,0Z" fill="white" stroke="none" stroke-width="2" fill-opacity="1.0"></path>
<path d="M552.0,200a8.0,8.0 0 1,0  16.0,0a8.0,8.0 0 1,0 -16.0,0Z" fill="none" stroke="black" stroke-width="2" stroke-opacity="1.0" ></path>
<path d="M552.0,200L568.0,200M560,192.0L560,208.0" fill="none" stroke="black" stroke-width="2" stroke-opacity="1.0" ></path>
<path d="M580,0L580,60" fill="none" stroke="black" stroke-width="2" stroke-opacity="1.0" ></path>
<path d="M577.0,0a3.0,3.0 0 1,0  6.0,0a3.0,3.0 0 1,0 -6.0,0Z" fill="black" stroke="none" stroke-width="1.5" fill-opacity="1.0"></path>
<path d="M572.0,60a8.0,8.0 0 1,0  16.0,0a8.0,8.0 0 1,0 -16.0,0Z" fill="white" stroke="none" stroke-width="2" fill-opacity="1.0"></path>
<path d="M572.0,60a8.0,8.0 0 1,0  16.0,0a8.0,8.0 0 1,0 -16.0,0Z" fill="none" stroke="black" stroke-width="2" stroke-opacity="1.0" ></path>
<path d="M572.0,60L588.0,60M580,52.0L580,68.0" fill="none" stroke="black" stroke-width="2" stroke-opacity="1.0" ></path>
<path d="M600,0L600,200" fill="none" stroke="black" stroke-width="2" stroke-opacity="1.0" ></path>
<path d="M597.0,0a3.0,3.0 0 1,0  6.0,0a3.0,3.0 0 1,0 -6.0,0Z" fill="black" stroke="none" stroke-width="1.5" fill-opacity="1.0"></path>
<path d="M597.0,60a3.0,3.0 0 1,0  6.0,0a3.0,3.0 0 1,0 -6.0,0Z" fill="black" stroke="none" stroke-width="1.5" fill-opacity="1.0"></path>
<path d="M592.0,200a8.0,8.0 0 1,0  16.0,0a8.0,8.0 0 1,0 -16.0,0Z" fill="white" stroke="none" stroke-width="2" fill-opacity="1.0"></path>
<path d="M592.0,200a8.0,8.0 0 1,0  16.0,0a8.0,8.0 0 1,0 -16.0,0Z" fill="none" stroke="black" stroke-width="2" stroke-opacity="1.0" ></path>
<path d="M592.0,200L608.0,200M600,192.0L600,208.0" fill="none" stroke="black" stroke-width="2" stroke-opacity="1.0" ></path>
<path d="M610.0,170.0Q620.0 170.0 620.0 180.0L620.0,180.0L620.0,240.0Q620.0 250.0 610.0 250.0" fill="none" stroke="rgba(0, 100, 125, 1.0)" stroke-width="1" stroke-opacity="1.0" ></path>
<text x="-209.99999999999997" y="615.0" font-style="normal" font-weight="normal" font-family="Tahoma" alignment-baseline="middle" text-anchor="middle" stroke="none" fill="#888" fill-opacity="1.0" font-size="7"  transform="rotate(-90)" ><title>carry</title>carry</text><rect x="32.0" y="-30.0" width="616.0" height="279.0" rx="0" ry="0" fill="green" stroke="none" fill-opacity="0.15" stroke-opacity="0.15" stroke-width="2" ></rect>
<path d="M32.0,-30.0L32.0,249.0" fill="none" stroke="green" stroke-width="2.0" stroke-opacity="1.0" ></path>
<text x="340.0" y="-30.0" font-style="italic" font-weight="bold" font-family="Tahoma" alignment-baseline="middle" text-anchor="middle" stroke="none" fill="black" fill-opacity="1.0" font-size="6" ><title>CTAdd</title>CTAdd</text><text x="340.0" y="-24.0" font-style="italic" font-weight="bold" font-family="Tahoma" alignment-baseline="middle" text-anchor="middle" stroke="none" fill="black" fill-opacity="1.0" font-size="6" ><title>compute cs:100</title>compute cs:100</text></g>
</svg>
