<svg xmlns="http://www.w3.org/2000/svg" viewBox="-116.0 -50.0 476.0 510.0" xmlns:xlink="http://www.w3.org/1999/xlink">
<style>
.hover_modes_0:hover
{
    stroke-opacity: 0.6
}
.no_mouse_events
{
    pointer-events: none
}
.hover_labels_0:hover
{
    fill-opacity: 1.0
}
.no_mouse_events
{
    pointer-events: none
}
</style>
<g>
  <path d="M-116.0,-50.0H360.0V460.0H-116.0Z" fill="white" stroke="#000" stroke-width="0.025"/>
<text x="-78.0" y="30.0" font-style="normal" font-weight="normal" font-family="Tahoma" alignment-baseline="middle" text-anchor="end" stroke="none" fill="#000" fill-opacity="1.0" font-size="14" ><title>lhs</title>lhs</text><path d="M-63.0,-10.0Q-73.0 -10.0 -73.0 0.0L-73.0,0.0L-73.0,60.0Q-73.0 70.0 -63.0 70.0" fill="none" stroke="rgba(0, 100, 125, 1.0)" stroke-width="1" stroke-opacity="1.0" ></path>
<text x="-20" y="0" font-style="normal" font-weight="normal" font-family="Tahoma" alignment-baseline="middle" text-anchor="end" stroke="none" fill="#000" fill-opacity="1.0" font-size="14" ><title>0x1</title>0x1</text><text x="-20" y="20" font-style="normal" font-weight="normal" font-family="Tahoma" alignment-baseline="middle" text-anchor="end" stroke="none" fill="#000" fill-opacity="1.0" font-size="14" ><title>0x2</title>0x2</text><text x="-20" y="40" font-style="normal" font-weight="normal" font-family="Tahoma" alignment-baseline="middle" text-anchor="end" stroke="none" fill="#000" fill-opacity="1.0" font-size="14" ><title>0x4</title>0x4</text><text x="-20" y="60" font-style="normal" font-weight="normal" font-family="Tahoma" alignment-baseline="middle" text-anchor="end" stroke="none" fill="#000" fill-opacity="1.0" font-size="14" ><title>0x8</title>0x8</text><text x="-78.0" y="100.0" font-style="normal" font-weight="normal" font-family="Tahoma" alignment-baseline="middle" text-anchor="end" stroke="none" fill="#000" fill-opacity="1.0" font-size="14" ><title>rhs</title>rhs</text><path d="M-63.0,70.0Q-73.0 70.0 -73.0 80.0L-73.0,80.0L-73.0,120.0Q-73.0 130.0 -63.0 130.0" fill="none" stroke="rgba(0, 100, 125, 1.0)" stroke-width="1" stroke-opacity="1.0" ></path>
<text x="-20" y="80" font-style="normal" font-weight="normal" font-family="Tahoma" alignment-baseline="middle" text-anchor="end" stroke="none" fill="#000" fill-opacity="1.0" font-size="14" ><title>0x1</title>0x1</text><text x="-20" y="100" font-style="normal" font-weight="normal" font-family="Tahoma" alignment-baseline="middle" text-anchor="end" stroke="none" fill="#000" fill-opacity="1.0" font-size="14" ><title>0x2</title>0x2</text><text x="-20" y="120" font-style="normal" font-weight="normal" font-family="Tahoma" alignment-baseline="middle" text-anchor="end" stroke="none" fill="#000" fill-opacity="1.0" font-size="14" ><title>0x4</title>0x4</text><text x="-20" y="140" font-style="normal" font-weight="normal" font-family="Tahoma" alignment-baseline="middle" text-anchor="end" stroke="none" fill="#000" fill-opacity="1.0" font-size="14" ><title>0x1</title>0x1</text><text x="-20" y="160" font-style="normal" font-weight="normal" font-family="Tahoma" alignment-baseline="middle" text-anchor="end" stroke="none" fill="#000" fill-opacity="1.0" font-size="14" ><title>0x2</title>0x2</text><text x="-20" y="180" font-style="normal" font-weight="normal" font-family="Tahoma" alignment-baseline="middle" text-anchor="end" stroke="none" fill="#000" fill-opacity="1.0" font-size="14" ><title>0x4</title>0x4</text><text x="-20" y="200" font-style="normal" font-weight="normal" font-family="Tahoma" alignment-baseline="middle" text-anchor="end" stroke="none" fill="#000" fill-opacity="1.0" font-size="14" ><title>0x8</title>0x8</text><text x="-20" y="220" font-style="normal" font-weight="normal" font-family="Tahoma" alignment-baseline="middle" text-anchor="end" stroke="none" fill="#000" fill-opacity="1.0" font-size="14" ><title>0x10</title>0x10</text><text x="-20" y="240" font-style="normal" font-weight="normal" font-family="Tahoma" alignment-baseline="middle" text-anchor="end" stroke="none" fill="#000" fill-opacity="1.0" font-size="14" ><title>0x20</title>0x20</text><text x="-20" y="260" font-style="normal" font-weight="normal" font-family="Tahoma" alignment-baseline="middle" text-anchor="end" stroke="none" fill="#000" fill-opacity="1.0" font-size="14" ><title>0x40</title>0x40</text><text x="-20" y="280" font-style="normal" font-weight="normal" font-family="Tahoma" alignment-baseline="middle" text-anchor="end" stroke="none" fill="#000" fill-opacity="1.0" font-size="14" ><title>0x80</title>0x80</text><text x="-20" y="300" font-style="normal" font-weight="normal" font-family="Tahoma" alignment-baseline="middle" text-anchor="end" stroke="none" fill="#000" fill-opacity="1.0" font-size="14" ><title>0x100</title>0x100</text><text x="-20" y="320" font-style="normal" font-weight="normal" font-family="Tahoma" alignment-baseline="middle" text-anchor="end" stroke="none" fill="#000" fill-opacity="1.0" font-size="14" ><title>0x200</title>0x200</text><text x="-20" y="340" font-style="normal" font-weight="normal" font-family="Tahoma" alignment-baseline="middle" text-anchor="end" stroke="none" fill="#000" fill-opacity="1.0" font-size="14" ><title>0x400</title>0x400</text><text x="-20" y="360" font-style="normal" font-weight="normal" font-family="Tahoma" alignment-baseline="middle" text-anchor="end" stroke="none" fill="#000" fill-opacity="1.0" font-size="14" ><title>0x800</title>0x800</text><text x="-20" y="380" font-style="normal" font-weight="normal" font-family="Tahoma" alignment-baseline="middle" text-anchor="end" stroke="none" fill="#000" fill-opacity="1.0" font-size="14" ><title>0x1000</title>0x1000</text><text x="-20" y="400" font-style="normal" font-weight="normal" font-family="Tahoma" alignment-baseline="middle" text-anchor="end" stroke="none" fill="#000" fill-opacity="1.0" font-size="14" ><title>0x2000</title>0x2000</text><text x="-20" y="420" font-style="normal" font-weight="normal" font-family="Tahoma" alignment-baseline="middle" text-anchor="end" stroke="none" fill="#000" fill-opacity="1.0" font-size="14" ><title>0x4000</title>0x4000</text><path d="M-10.0,0L20,0" fill="none" stroke="#dddddd" stroke-width="1" stroke-opacity="1.0" ></path>
<path d="M20,0L340,0" fill="none" stroke="#000000" stroke-width="1" stroke-opacity="1.0" ></path>
<path d="M-10.0,20L20,20" fill="none" stroke="#dddddd" stroke-width="1" stroke-opacity="1.0" ></path>
<path d="M20,20L340,20" fill="none" stroke="#000000" stroke-width="1" stroke-opacity="1.0" ></path>
<path d="M-10.0,40L20,40" fill="none" stroke="#dddddd" stroke-width="1" stroke-opacity="1.0" ></path>
<path d="M20,40L340,40" fill="none" stroke="#000000" stroke-width="1" stroke-opacity="1.0" ></path>
<path d="M-10.0,60L20,60" fill="none" stroke="#dddddd" stroke-width="1" stroke-opacity="1.0" ></path>
<path d="M20,60L340,60" fill="none" stroke="#000000" stroke-width="1" stroke-opacity="1.0" ></path>
<path d="M-10.0,80L20,80" fill="none" stroke="#dddddd" stroke-width="1" stroke-opacity="1.0" ></path>
<path d="M20,80L340,80" fill="none" stroke="#000000" stroke-width="1" stroke-opacity="1.0" ></path>
<path d="M-10.0,100L20,100" fill="none" stroke="#dddddd" stroke-width="1" stroke-opacity="1.0" ></path>
<path d="M20,100L340,100" fill="none" stroke="#000000" stroke-width="1" stroke-opacity="1.0" ></path>
<path d="M-10.0,120L20,120" fill="none" stroke="#dddddd" stroke-width="1" stroke-opacity="1.0" ></path>
<path d="M20,120L340,120" fill="none" stroke="#000000" stroke-width="1" stroke-opacity="1.0" ></path>
<path d="M-10.0,140L340,140" fill="none" stroke="#dddddd" stroke-width="1" stroke-opacity="1.0" ></path>
<path d="M-10.0,160L340,160" fill="none" stroke="#dddddd" stroke-width="1" stroke-opacity="1.0" ></path>
<path d="M-10.0,180L340,180" fill="none" stroke="#dddddd" stroke-width="1" stroke-opacity="1.0" ></path>
<path d="M-10.0,200L340,200" fill="none" stroke="#dddddd" stroke-width="1" stroke-opacity="1.0" ></path>
<path d="M-10.0,220L340,220" fill="none" stroke="#dddddd" stroke-width="1" stroke-opacity="1.0" ></path>
<path d="M-10.0,240L340,240" fill="none" stroke="#dddddd" stroke-width="1" stroke-opacity="1.0" ></path>
<path d="M-10.0,260L340,260" fill="none" stroke="#dddddd" stroke-width="1" stroke-opacity="1.0" ></path>
<path d="M-10.0,280L340,280" fill="none" stroke="#dddddd" stroke-width="1" stroke-opacity="1.0" ></path>
<path d="M-10.0,300L340,300" fill="none" stroke="#dddddd" stroke-width="1" stroke-opacity="1.0" ></path>
<path d="M-10.0,320L340,320" fill="none" stroke="#dddddd" stroke-width="1" stroke-opacity="1.0" ></path>
<path d="M-10.0,340L340,340" fill="none" stroke="#dddddd" stroke-width="1" stroke-opacity="1.0" ></path>
<path d="M-10.0,360L340,360" fill="none" stroke="#dddddd" stroke-width="1" stroke-opacity="1.0" ></path>
<path d="M-10.0,380L340,380" fill="none" stroke="#dddddd" stroke-width="1" stroke-opacity="1.0" ></path>
<path d="M-10.0,400L340,400" fill="none" stroke="#dddddd" stroke-width="1" stroke-opacity="1.0" ></path>
<path d="M-10.0,420L340,420" fill="none" stroke="#dddddd" stroke-width="1" stroke-opacity="1.0" ></path>
<path d="M10.0,-10.0Q0 -10.0 0 0.0L0,0.0L0,60.0Q0 70.0 10.0 70.0" fill="none" stroke="rgba(0, 100, 125, 1.0)" stroke-width="1" stroke-opacity="1.0" ></path>
<text x="-30.0" y="5.000000000000002" font-style="normal" font-weight="normal" font-family="Tahoma" alignment-baseline="middle" text-anchor="middle" stroke="none" fill="#888" fill-opacity="1.0" font-size="7"  transform="rotate(-90)" ><title>lhs</title>lhs</text><path d="M10.0,70.0Q0 70.0 0 80.0L0,80.0L0,120.0Q0 130.0 10.0 130.0" fill="none" stroke="rgba(0, 100, 125, 1.0)" stroke-width="1" stroke-opacity="1.0" ></path>
<text x="-100.0" y="5.000000000000006" font-style="normal" font-weight="normal" font-family="Tahoma" alignment-baseline="middle" text-anchor="middle" stroke="none" fill="#888" fill-opacity="1.0" font-size="7"  transform="rotate(-90)" ><title>rhs</title>rhs</text><rect x="16.0" y="-8.0" width="9.6" height="16.0" rx="0" ry="0" fill="white" stroke="none" fill-opacity="1.0" stroke-opacity="1.0" stroke-width="2" ></rect>
<path d="M16.0,-4.0L25.6,0L16.0,4.0" fill="none" stroke="black" stroke-width="2" stroke-opacity="1.0" ></path>
<text x="14.0" y="0" font-style="normal" font-weight="normal" font-family="Tahoma" alignment-baseline="middle" text-anchor="middle" stroke="none" fill="#888" fill-opacity="1.0" font-size="7" ><title>0</title>0</text><rect x="16.0" y="12.0" width="9.6" height="16.0" rx="0" ry="0" fill="#c8ff90" stroke="none" fill-opacity="1.0" stroke-opacity="1.0" stroke-width="2" ></rect>
<path d="M16.0,16.0L25.6,20L16.0,24.0" fill="none" stroke="black" stroke-width="2" stroke-opacity="1.0" ></path>
<text x="14.0" y="20" font-style="normal" font-weight="normal" font-family="Tahoma" alignment-baseline="middle" text-anchor="middle" stroke="none" fill="#888" fill-opacity="1.0" font-size="7" ><title>1</title>1</text><rect x="16.0" y="32.0" width="9.6" height="16.0" rx="0" ry="0" fill="#c8ff90" stroke="none" fill-opacity="1.0" stroke-opacity="1.0" stroke-width="2" ></rect>
<path d="M16.0,36.0L25.6,40L16.0,44.0" fill="none" stroke="black" stroke-width="2" stroke-opacity="1.0" ></path>
<text x="14.0" y="40" font-style="normal" font-weight="normal" font-family="Tahoma" alignment-baseline="middle" text-anchor="middle" stroke="none" fill="#888" fill-opacity="1.0" font-size="7" ><title>1</title>1</text><rect x="16.0" y="52.0" width="9.6" height="16.0" rx="0" ry="0" fill="white" stroke="none" fill-opacity="1.0" stroke-opacity="1.0" stroke-width="2" ></rect>
<path d="M16.0,56.0L25.6,60L16.0,64.0" fill="none" stroke="black" stroke-width="2" stroke-opacity="1.0" ></path>
<text x="14.0" y="60" font-style="normal" font-weight="normal" font-family="Tahoma" alignment-baseline="middle" text-anchor="middle" stroke="none" fill="#888" fill-opacity="1.0" font-size="7" ><title>0</title>0</text><text x="20" y="-9.0" font-style="normal" font-weight="normal" font-family="Tahoma" alignment-baseline="middle" text-anchor="middle" stroke="none" fill="blue" fill-opacity="1.0" font-size="7" ><title>6</title>6</text><rect x="16.0" y="72.0" width="9.6" height="16.0" rx="0" ry="0" fill="#c8ff90" stroke="none" fill-opacity="1.0" stroke-opacity="1.0" stroke-width="2" ></rect>
<path d="M16.0,76.0L25.6,80L16.0,84.0" fill="none" stroke="black" stroke-width="2" stroke-opacity="1.0" ></path>
<text x="14.0" y="80" font-style="normal" font-weight="normal" font-family="Tahoma" alignment-baseline="middle" text-anchor="middle" stroke="none" fill="#888" fill-opacity="1.0" font-size="7" ><title>1</title>1</text><rect x="16.0" y="92.0" width="9.6" height="16.0" rx="0" ry="0" fill="white" stroke="none" fill-opacity="1.0" stroke-opacity="1.0" stroke-width="2" ></rect>
<path d="M16.0,96.0L25.6,100L16.0,104.0" fill="none" stroke="black" stroke-width="2" stroke-opacity="1.0" ></path>
<text x="14.0" y="100" font-style="normal" font-weight="normal" font-family="Tahoma" alignment-baseline="middle" text-anchor="middle" stroke="none" fill="#888" fill-opacity="1.0" font-size="7" ><title>0</title>0</text><rect x="16.0" y="112.0" width="9.6" height="16.0" rx="0" ry="0" fill="white" stroke="none" fill-opacity="1.0" stroke-opacity="1.0" stroke-width="2" ></rect>
<path d="M16.0,116.0L25.6,120L16.0,124.0" fill="none" stroke="black" stroke-width="2" stroke-opacity="1.0" ></path>
<text x="14.0" y="120" font-style="normal" font-weight="normal" font-family="Tahoma" alignment-baseline="middle" text-anchor="middle" stroke="none" fill="#888" fill-opacity="1.0" font-size="7" ><title>0</title>0</text><text x="20" y="71.0" font-style="normal" font-weight="normal" font-family="Tahoma" alignment-baseline="middle" text-anchor="middle" stroke="none" fill="blue" fill-opacity="1.0" font-size="7" ><title>1</title>1</text><path d="M60,20L60,100" fill="none" stroke="black" stroke-width="2" stroke-opacity="1.0" ></path>
<path d="M57.0,100a3.0,3.0 0 1,0  6.0,0a3.0,3.0 0 1,0 -6.0,0Z" fill="black" stroke="none" stroke-width="1.5" fill-opacity="1.0"></path>
<path d="M52.0,20a8.0,8.0 0 1,0  16.0,0a8.0,8.0 0 1,0 -16.0,0Z" fill="white" stroke="none" stroke-width="2" fill-opacity="1.0"></path>
<path d="M52.0,20a8.0,8.0 0 1,0  16.0,0a8.0,8.0 0 1,0 -16.0,0Z" fill="none" stroke="black" stroke-width="2" stroke-opacity="1.0" ></path>
<path d="M52.0,20L68.0,20M60,12.0L60,28.0" fill="none" stroke="black" stroke-width="2" stroke-opacity="1.0" ></path>
<path d="M80,40L80,120" fill="none" stroke="black" stroke-width="2" stroke-opacity="1.0" ></path>
<path d="M77.0,120a3.0,3.0 0 1,0  6.0,0a3.0,3.0 0 1,0 -6.0,0Z" fill="black" stroke="none" stroke-width="1.5" fill-opacity="1.0"></path>
<path d="M72.0,40a8.0,8.0 0 1,0  16.0,0a8.0,8.0 0 1,0 -16.0,0Z" fill="white" stroke="none" stroke-width="2" fill-opacity="1.0"></path>
<path d="M72.0,40a8.0,8.0 0 1,0  16.0,0a8.0,8.0 0 1,0 -16.0,0Z" fill="none" stroke="black" stroke-width="2" stroke-opacity="1.0" ></path>
<path d="M72.0,40L88.0,40M80,32.0L80,48.0" fill="none" stroke="black" stroke-width="2" stroke-opacity="1.0" ></path>
<path d="M100,60L100,120" fill="none" stroke="black" stroke-width="2" stroke-opacity="1.0" ></path>
<path d="M97.0,120a3.0,3.0 0 1,0  6.0,0a3.0,3.0 0 1,0 -6.0,0Z" fill="black" stroke="none" stroke-width="1.5" fill-opacity="1.0"></path>
<path d="M92.0,60a8.0,8.0 0 1,0  16.0,0a8.0,8.0 0 1,0 -16.0,0Z" fill="white" stroke="none" stroke-width="2" fill-opacity="1.0"></path>
<path d="M92.0,60a8.0,8.0 0 1,0  16.0,0a8.0,8.0 0 1,0 -16.0,0Z" fill="none" stroke="black" stroke-width="2" stroke-opacity="1.0" ></path>
<path d="M92.0,60L108.0,60M100,52.0L100,68.0" fill="none" stroke="black" stroke-width="2" stroke-opacity="1.0" ></path>
<path d="M120,100L120,120" fill="none" stroke="black" stroke-width="2" stroke-opacity="1.0" ></path>
<path d="M117.0,100a3.0,3.0 0 1,0  6.0,0a3.0,3.0 0 1,0 -6.0,0Z" fill="black" stroke="none" stroke-width="1.5" fill-opacity="1.0"></path>
<path d="M112.0,120a8.0,8.0 0 1,0  16.0,0a8.0,8.0 0 1,0 -16.0,0Z" fill="white" stroke="none" stroke-width="2" fill-opacity="1.0"></path>
<path d="M112.0,120a8.0,8.0 0 1,0  16.0,0a8.0,8.0 0 1,0 -16.0,0Z" fill="none" stroke="black" stroke-width="2" stroke-opacity="1.0" ></path>
<path d="M112.0,120L128.0,120M120,112.0L120,128.0" fill="none" stroke="black" stroke-width="2" stroke-opacity="1.0" ></path>
<path d="M140,0L140,100" fill="none" stroke="black" stroke-width="2" stroke-opacity="1.0" ></path>
<path d="M137.0,0a3.0,3.0 0 1,0  6.0,0a3.0,3.0 0 1,0 -6.0,0Z" fill="black" stroke="none" stroke-width="1.5" fill-opacity="1.0"></path>
<path d="M137.0,80a3.0,3.0 0 1,0  6.0,0a3.0,3.0 0 1,0 -6.0,0Z" fill="black" stroke="none" stroke-width="1.5" fill-opacity="1.0"></path>
<path d="M132.0,100a8.0,8.0 0 1,0  16.0,0a8.0,8.0 0 1,0 -16.0,0Z" fill="white" stroke="none" stroke-width="2" fill-opacity="1.0"></path>
<path d="M132.0,100a8.0,8.0 0 1,0  16.0,0a8.0,8.0 0 1,0 -16.0,0Z" fill="none" stroke="black" stroke-width="2" stroke-opacity="1.0" ></path>
<path d="M132.0,100L148.0,100M140,92.0L140,108.0" fill="none" stroke="black" stroke-width="2" stroke-opacity="1.0" ></path>
<path d="M160,20L160,120" fill="none" stroke="black" stroke-width="2" stroke-opacity="1.0" ></path>
<path d="M157.0,20a3.0,3.0 0 1,0  6.0,0a3.0,3.0 0 1,0 -6.0,0Z" fill="black" stroke="none" stroke-width="1.5" fill-opacity="1.0"></path>
<path d="M157.0,100a3.0,3.0 0 1,0  6.0,0a3.0,3.0 0 1,0 -6.0,0Z" fill="black" stroke="none" stroke-width="1.5" fill-opacity="1.0"></path>
<path d="M152.0,120a8.0,8.0 0 1,0  16.0,0a8.0,8.0 0 1,0 -16.0,0Z" fill="white" stroke="none" stroke-width="2" fill-opacity="1.0"></path>
<path d="M152.0,120a8.0,8.0 0 1,0  16.0,0a8.0,8.0 0 1,0 -16.0,0Z" fill="none" stroke="black" stroke-width="2" stroke-opacity="1.0" ></path>
<path d="M152.0,120L168.0,120M160,112.0L160,128.0" fill="none" stroke="black" stroke-width="2" stroke-opacity="1.0" ></path>
<path d="M180,40L180,120" fill="none" stroke="black" stroke-width="2" stroke-opacity="1.0" ></path>
<path d="M177.0,40a3.0,3.0 0 1,0  6.0,0a3.0,3.0 0 1,0 -6.0,0Z" fill="black" stroke="none" stroke-width="1.5" fill-opacity="1.0"></path>
<path d="M177.0,120a3.0,3.0 0 1,0  6.0,0a3.0,3.0 0 1,0 -6.0,0Z" fill="black" stroke="none" stroke-width="1.5" fill-opacity="1.0"></path>
<path d="M172.0,60a8.0,8.0 0 1,0  16.0,0a8.0,8.0 0 1,0 -16.0,0Z" fill="white" stroke="none" stroke-width="2" fill-opacity="1.0"></path>
<path d="M172.0,60a8.0,8.0 0 1,0  16.0,0a8.0,8.0 0 1,0 -16.0,0Z" fill="none" stroke="black" stroke-width="2" stroke-opacity="1.0" ></path>
<path d="M172.0,60L188.0,60M180,52.0L180,68.0" fill="none" stroke="black" stroke-width="2" stroke-opacity="1.0" ></path>
<path d="M200,40L200,120" fill="none" stroke="black" stroke-width="2" stroke-opacity="1.0" ></path>
<path d="M197.0,120a3.0,3.0 0 1,0  6.0,0a3.0,3.0 0 1,0 -6.0,0Z" fill="black" stroke="none" stroke-width="1.5" fill-opacity="1.0"></path>
<path d="M192.0,40a8.0,8.0 0 1,0  16.0,0a8.0,8.0 0 1,0 -16.0,0Z" fill="white" stroke="none" stroke-width="2" fill-opacity="1.0"></path>
<path d="M192.0,40a8.0,8.0 0 1,0  16.0,0a8.0,8.0 0 1,0 -16.0,0Z" fill="none" stroke="black" stroke-width="2" stroke-opacity="1.0" ></path>
<path d="M192.0,40L208.0,40M200,32.0L200,48.0" fill="none" stroke="black" stroke-width="2" stroke-opacity="1.0" ></path>
<path d="M220,20L220,120" fill="none" stroke="black" stroke-width="2" stroke-opacity="1.0" ></path>
<path d="M217.0,20a3.0,3.0 0 1,0  6.0,0a3.0,3.0 0 1,0 -6.0,0Z" fill="black" stroke="none" stroke-width="1.5" fill-opacity="1.0"></path>
<path d="M217.0,100a3.0,3.0 0 1,0  6.0,0a3.0,3.0 0 1,0 -6.0,0Z" fill="black" stroke="none" stroke-width="1.5" fill-opacity="1.0"></path>
<path d="M212.0,120a8.0,8.0 0 1,0  16.0,0a8.0,8.0 0 1,0 -16.0,0Z" fill="white" stroke="none" stroke-width="2" fill-opacity="1.0"></path>
<path d="M212.0,120a8.0,8.0 0 1,0  16.0,0a8.0,8.0 0 1,0 -16.0,0Z" fill="none" stroke="black" stroke-width="2" stroke-opacity="1.0" ></path>
<path d="M212.0,120L228.0,120M220,112.0L220,128.0" fill="none" stroke="black" stroke-width="2" stroke-opacity="1.0" ></path>
<path d="M240,20L240,100" fill="none" stroke="black" stroke-width="2" stroke-opacity="1.0" ></path>
<path d="M237.0,100a3.0,3.0 0 1,0  6.0,0a3.0,3.0 0 1,0 -6.0,0Z" fill="black" stroke="none" stroke-width="1.5" fill-opacity="1.0"></path>
<path d="M232.0,20a8.0,8.0 0 1,0  16.0,0a8.0,8.0 0 1,0 -16.0,0Z" fill="white" stroke="none" stroke-width="2" fill-opacity="1.0"></path>
<path d="M232.0,20a8.0,8.0 0 1,0  16.0,0a8.0,8.0 0 1,0 -16.0,0Z" fill="none" stroke="black" stroke-width="2" stroke-opacity="1.0" ></path>
<path d="M232.0,20L248.0,20M240,12.0L240,28.0" fill="none" stroke="black" stroke-width="2" stroke-opacity="1.0" ></path>
<path d="M260,0L260,100" fill="none" stroke="black" stroke-width="2" stroke-opacity="1.0" ></path>
<path d="M257.0,0a3.0,3.0 0 1,0  6.0,0a3.0,3.0 0 1,0 -6.0,0Z" fill="black" stroke="none" stroke-width="1.5" fill-opacity="1.0"></path>
<path d="M257.0,80a3.0,3.0 0 1,0  6.0,0a3.0,3.0 0 1,0 -6.0,0Z" fill="black" stroke="none" stroke-width="1.5" fill-opacity="1.0"></path>
<path d="M252.0,100a8.0,8.0 0 1,0  16.0,0a8.0,8.0 0 1,0 -16.0,0Z" fill="white" stroke="none" stroke-width="2" fill-opacity="1.0"></path>
<path d="M252.0,100a8.0,8.0 0 1,0  16.0,0a8.0,8.0 0 1,0 -16.0,0Z" fill="none" stroke="black" stroke-width="2" stroke-opacity="1.0" ></path>
<path d="M252.0,100L268.0,100M260,92.0L260,108.0" fill="none" stroke="black" stroke-width="2" stroke-opacity="1.0" ></path>
<path d="M280,100L280,120" fill="none" stroke="black" stroke-width="2" stroke-opacity="1.0" ></path>
<path d="M277.0,100a3.0,3.0 0 1,0  6.0,0a3.0,3.0 0 1,0 -6.0,0Z" fill="black" stroke="none" stroke-width="1.5" fill-opacity="1.0"></path>
<path d="M272.0,120a8.0,8.0 0 1,0  16.0,0a8.0,8.0 0 1,0 -16.0,0Z" fill="white" stroke="none" stroke-width="2" fill-opacity="1.0"></path>
<path d="M272.0,120a8.0,8.0 0 1,0  16.0,0a8.0,8.0 0 1,0 -16.0,0Z" fill="none" stroke="black" stroke-width="2" stroke-opacity="1.0" ></path>
<path d="M272.0,120L288.0,120M280,112.0L280,128.0" fill="none" stroke="black" stroke-width="2" stroke-opacity="1.0" ></path>
<path d="M280,0L280,80" fill="none" stroke="black" stroke-width="2" stroke-opacity="1.0" ></path>
<path d="M277.0,80a3.0,3.0 0 1,0  6.0,0a3.0,3.0 0 1,0 -6.0,0Z" fill="black" stroke="none" stroke-width="1.5" fill-opacity="1.0"></path>
<path d="M272.0,0a8.0,8.0 0 1,0  16.0,0a8.0,8.0 0 1,0 -16.0,0Z" fill="white" stroke="none" stroke-width="2" fill-opacity="1.0"></path>
<path d="M272.0,0a8.0,8.0 0 1,0  16.0,0a8.0,8.0 0 1,0 -16.0,0Z" fill="none" stroke="black" stroke-width="2" stroke-opacity="1.0" ></path>
<path d="M272.0,0L288.0,0M280,-8.0L280,8.0" fill="none" stroke="black" stroke-width="2" stroke-opacity="1.0" ></path>
<path d="M300,20L300,100" fill="none" stroke="black" stroke-width="2" stroke-opacity="1.0" ></path>
<path d="M297.0,100a3.0,3.0 0 1,0  6.0,0a3.0,3.0 0 1,0 -6.0,0Z" fill="black" stroke="none" stroke-width="1.5" fill-opacity="1.0"></path>
<path d="M292.0,20a8.0,8.0 0 1,0  16.0,0a8.0,8.0 0 1,0 -16.0,0Z" fill="white" stroke="none" stroke-width="2" fill-opacity="1.0"></path>
<path d="M292.0,20a8.0,8.0 0 1,0  16.0,0a8.0,8.0 0 1,0 -16.0,0Z" fill="none" stroke="black" stroke-width="2" stroke-opacity="1.0" ></path>
<path d="M292.0,20L308.0,20M300,12.0L300,28.0" fill="none" stroke="black" stroke-width="2" stroke-opacity="1.0" ></path>
<path d="M320,40L320,120" fill="none" stroke="black" stroke-width="2" stroke-opacity="1.0" ></path>
<path d="M317.0,120a3.0,3.0 0 1,0  6.0,0a3.0,3.0 0 1,0 -6.0,0Z" fill="black" stroke="none" stroke-width="1.5" fill-opacity="1.0"></path>
<path d="M312.0,40a8.0,8.0 0 1,0  16.0,0a8.0,8.0 0 1,0 -16.0,0Z" fill="white" stroke="none" stroke-width="2" fill-opacity="1.0"></path>
<path d="M312.0,40a8.0,8.0 0 1,0  16.0,0a8.0,8.0 0 1,0 -16.0,0Z" fill="none" stroke="black" stroke-width="2" stroke-opacity="1.0" ></path>
<path d="M312.0,40L328.0,40M320,32.0L320,48.0" fill="none" stroke="black" stroke-width="2" stroke-opacity="1.0" ></path>
<rect x="32.0" y="-30.0" width="316.0" height="159.0" rx="0" ry="0" fill="green" stroke="none" fill-opacity="0.15" stroke-opacity="0.15" stroke-width="2" ></rect>
<path d="M32.0,-30.0L32.0,129.0" fill="none" stroke="green" stroke-width="2.0" stroke-opacity="1.0" ></path>
<text x="190.0" y="-30.0" font-style="italic" font-weight="bold" font-family="Tahoma" alignment-baseline="middle" text-anchor="middle" stroke="none" fill="black" fill-opacity="1.0" font-size="6" ><title>TTKAdd</title>TTKAdd</text><text x="190.0" y="-24.0" font-style="italic" font-weight="bold" font-family="Tahoma" alignment-baseline="middle" text-anchor="middle" stroke="none" fill="black" fill-opacity="1.0" font-size="6" ><title>compute cs:100</title>compute cs:100</text></g>
</svg>
