<svg xmlns="http://www.w3.org/2000/svg" viewBox="-120.0 -50.0 580.0 510.0" xmlns:xlink="http://www.w3.org/1999/xlink">
<style>
.hover_modes_0:hover
{
    stroke-opacity: 0.6
}
.no_mouse_events
{
    pointer-events: none
}
.hover_labels_0:hover
{
    fill-opacity: 1.0
}
.no_mouse_events
{
    pointer-events: none
}
</style>
<g>
  <path d="M-120.0,-50.0H460.0V460.0H-120.0Z" fill="white" stroke="#000" stroke-width="0.025"/>
<text x="-70.0" y="20.0" font-style="normal" font-weight="normal" font-family="Tahoma" alignment-baseline="middle" text-anchor="end" stroke="none" fill="#000" fill-opacity="1.0" font-size="14" ><title>lhs</title>lhs</text><path d="M-55.0,-10.0Q-65.0 -10.0 -65.0 0.0L-65.0,0.0L-65.0,40.0Q-65.0 50.0 -55.0 50.0" fill="none" stroke="rgba(0, 100, 125, 1.0)" stroke-width="1" stroke-opacity="1.0" ></path>
<text x="-20" y="0" font-style="normal" font-weight="normal" font-family="Tahoma" alignment-baseline="middle" text-anchor="end" stroke="none" fill="#000" fill-opacity="1.0" font-size="14" ><title>0x1</title>0x1</text><text x="-20" y="20" font-style="normal" font-weight="normal" font-family="Tahoma" alignment-baseline="middle" text-anchor="end" stroke="none" fill="#000" fill-opacity="1.0" font-size="14" ><title>0x2</title>0x2</text><text x="-20" y="40" font-style="normal" font-weight="normal" font-family="Tahoma" alignment-baseline="middle" text-anchor="end" stroke="none" fill="#000" fill-opacity="1.0" font-size="14" ><title>0x4</title>0x4</text><text x="-70.0" y="80.0" font-style="normal" font-weight="normal" font-family="Tahoma" alignment-baseline="middle" text-anchor="end" stroke="none" fill="#000" fill-opacity="1.0" font-size="14" ><title>rhs</title>rhs</text><path d="M-55.0,50.0Q-65.0 50.0 -65.0 60.0L-65.0,60.0L-65.0,100.0Q-65.0 110.0 -55.0 110.0" fill="none" stroke="rgba(0, 100, 125, 1.0)" stroke-width="1" stroke-opacity="1.0" ></path>
<text x="-20" y="60" font-style="normal" font-weight="normal" font-family="Tahoma" alignment-baseline="middle" text-anchor="end" stroke="none" fill="#000" fill-opacity="1.0" font-size="14" ><title>0x1</title>0x1</text><text x="-20" y="80" font-style="normal" font-weight="normal" font-family="Tahoma" alignment-baseline="middle" text-anchor="end" stroke="none" fill="#000" fill-opacity="1.0" font-size="14" ><title>0x2</title>0x2</text><text x="-20" y="100" font-style="normal" font-weight="normal" font-family="Tahoma" alignment-baseline="middle" text-anchor="end" stroke="none" fill="#000" fill-opacity="1.0" font-size="14" ><title>0x4</title>0x4</text><text x="-70.0" y="120.0" font-style="normal" font-weight="normal" font-family="Tahoma" alignment-baseline="middle" text-anchor="end" stroke="none" fill="#000" fill-opacity="1.0" font-size="14" ><title>carry</title>carry</text><text x="-20" y="120" font-style="normal" font-weight="normal" font-family="Tahoma" alignment-baseline="middle" text-anchor="end" stroke="none" fill="#000" fill-opacity="1.0" font-size="14" ><title>0x1</title>0x1</text><text x="-70.0" y="160.0" font-style="normal" font-weight="normal" font-family="Tahoma" alignment-baseline="middle" text-anchor="end" stroke="none" fill="#000" fill-opacity="1.0" font-size="14" ><title>aux</title>aux</text><path d="M-55.0,130.0Q-65.0 130.0 -65.0 140.0L-65.0,140.0L-65.0,180.0Q-65.0 190.0 -55.0 190.0" fill="none" stroke="rgba(0, 100, 125, 1.0)" stroke-width="1" stroke-opacity="1.0" ></path>
<text x="-20" y="140" font-style="normal" font-weight="normal" font-family="Tahoma" alignment-baseline="middle" text-anchor="end" stroke="none" fill="#000" fill-opacity="1.0" font-size="14" ><title>0x1</title>0x1</text><text x="-20" y="160" font-style="normal" font-weight="normal" font-family="Tahoma" alignment-baseline="middle" text-anchor="end" stroke="none" fill="#000" fill-opacity="1.0" font-size="14" ><title>0x2</title>0x2</text><text x="-20" y="180" font-style="normal" font-weight="normal" font-family="Tahoma" alignment-baseline="middle" text-anchor="end" stroke="none" fill="#000" fill-opacity="1.0" font-size="14" ><title>0x4</title>0x4</text><text x="-20" y="200" font-style="normal" font-weight="normal" font-family="Tahoma" alignment-baseline="middle" text-anchor="end" stroke="none" fill="#000" fill-opacity="1.0" font-size="14" ><title>0x1</title>0x1</text><text x="-20" y="220" font-style="normal" font-weight="normal" font-family="Tahoma" alignment-baseline="middle" text-anchor="end" stroke="none" fill="#000" fill-opacity="1.0" font-size="14" ><title>0x2</title>0x2</text><text x="-20" y="240" font-style="normal" font-weight="normal" font-family="Tahoma" alignment-baseline="middle" text-anchor="end" stroke="none" fill="#000" fill-opacity="1.0" font-size="14" ><title>0x4</title>0x4</text><text x="-20" y="260" font-style="normal" font-weight="normal" font-family="Tahoma" alignment-baseline="middle" text-anchor="end" stroke="none" fill="#000" fill-opacity="1.0" font-size="14" ><title>0x8</title>0x8</text><text x="-20" y="280" font-style="normal" font-weight="normal" font-family="Tahoma" alignment-baseline="middle" text-anchor="end" stroke="none" fill="#000" fill-opacity="1.0" font-size="14" ><title>0x10</title>0x10</text><text x="-20" y="300" font-style="normal" font-weight="normal" font-family="Tahoma" alignment-baseline="middle" text-anchor="end" stroke="none" fill="#000" fill-opacity="1.0" font-size="14" ><title>0x20</title>0x20</text><text x="-20" y="320" font-style="normal" font-weight="normal" font-family="Tahoma" alignment-baseline="middle" text-anchor="end" stroke="none" fill="#000" fill-opacity="1.0" font-size="14" ><title>0x40</title>0x40</text><text x="-20" y="340" font-style="normal" font-weight="normal" font-family="Tahoma" alignment-baseline="middle" text-anchor="end" stroke="none" fill="#000" fill-opacity="1.0" font-size="14" ><title>0x80</title>0x80</text><text x="-20" y="360" font-style="normal" font-weight="normal" font-family="Tahoma" alignment-baseline="middle" text-anchor="end" stroke="none" fill="#000" fill-opacity="1.0" font-size="14" ><title>0x100</title>0x100</text><text x="-20" y="380" font-style="normal" font-weight="normal" font-family="Tahoma" alignment-baseline="middle" text-anchor="end" stroke="none" fill="#000" fill-opacity="1.0" font-size="14" ><title>0x200</title>0x200</text><text x="-20" y="400" font-style="normal" font-weight="normal" font-family="Tahoma" alignment-baseline="middle" text-anchor="end" stroke="none" fill="#000" fill-opacity="1.0" font-size="14" ><title>0x400</title>0x400</text><text x="-20" y="420" font-style="normal" font-weight="normal" font-family="Tahoma" alignment-baseline="middle" text-anchor="end" stroke="none" fill="#000" fill-opacity="1.0" font-size="14" ><title>0x800</title>0x800</text><path d="M-10.0,0L20,0" fill="none" stroke="#dddddd" stroke-width="1" stroke-opacity="1.0" ></path>
<path d="M20,0L440,0" fill="none" stroke="#000000" stroke-width="1" stroke-opacity="1.0" ></path>
<path d="M-10.0,20L20,20" fill="none" stroke="#dddddd" stroke-width="1" stroke-opacity="1.0" ></path>
<path d="M20,20L440,20" fill="none" stroke="#000000" stroke-width="1" stroke-opacity="1.0" ></path>
<path d="M-10.0,40L20,40" fill="none" stroke="#dddddd" stroke-width="1" stroke-opacity="1.0" ></path>
<path d="M20,40L440,40" fill="none" stroke="#000000" stroke-width="1" stroke-opacity="1.0" ></path>
<path d="M-10.0,60L20,60" fill="none" stroke="#dddddd" stroke-width="1" stroke-opacity="1.0" ></path>
<path d="M20,60L440,60" fill="none" stroke="#000000" stroke-width="1" stroke-opacity="1.0" ></path>
<path d="M-10.0,80L20,80" fill="none" stroke="#dddddd" stroke-width="1" stroke-opacity="1.0" ></path>
<path d="M20,80L440,80" fill="none" stroke="#000000" stroke-width="1" stroke-opacity="1.0" ></path>
<path d="M-10.0,100L20,100" fill="none" stroke="#dddddd" stroke-width="1" stroke-opacity="1.0" ></path>
<path d="M20,100L440,100" fill="none" stroke="#000000" stroke-width="1" stroke-opacity="1.0" ></path>
<path d="M-10.0,120L120,120" fill="none" stroke="#dddddd" stroke-width="1" stroke-opacity="1.0" ></path>
<path d="M120,120L440,120" fill="none" stroke="#000000" stroke-width="1" stroke-opacity="1.0" ></path>
<path d="M-10.0,140L80,140" fill="none" stroke="#dddddd" stroke-width="1" stroke-opacity="1.0" ></path>
<path d="M80,140L440,140" fill="none" stroke="#000000" stroke-width="1" stroke-opacity="1.0" ></path>
<path d="M-10.0,160L200,160" fill="none" stroke="#dddddd" stroke-width="1" stroke-opacity="1.0" ></path>
<path d="M200,160L440,160" fill="none" stroke="#000000" stroke-width="1" stroke-opacity="1.0" ></path>
<path d="M-10.0,180L320,180" fill="none" stroke="#dddddd" stroke-width="1" stroke-opacity="1.0" ></path>
<path d="M320,180L440,180" fill="none" stroke="#000000" stroke-width="1" stroke-opacity="1.0" ></path>
<path d="M-10.0,200L440,200" fill="none" stroke="#dddddd" stroke-width="1" stroke-opacity="1.0" ></path>
<path d="M-10.0,220L440,220" fill="none" stroke="#dddddd" stroke-width="1" stroke-opacity="1.0" ></path>
<path d="M-10.0,240L440,240" fill="none" stroke="#dddddd" stroke-width="1" stroke-opacity="1.0" ></path>
<path d="M-10.0,260L440,260" fill="none" stroke="#dddddd" stroke-width="1" stroke-opacity="1.0" ></path>
<path d="M-10.0,280L440,280" fill="none" stroke="#dddddd" stroke-width="1" stroke-opacity="1.0" ></path>
<path d="M-10.0,300L440,300" fill="none" stroke="#dddddd" stroke-width="1" stroke-opacity="1.0" ></path>
<path d="M-10.0,320L440,320" fill="none" stroke="#dddddd" stroke-width="1" stroke-opacity="1.0" ></path>
<path d="M-10.0,340L440,340" fill="none" stroke="#dddddd" stroke-width="1" stroke-opacity="1.0" ></path>
<path d="M-10.0,360L440,360" fill="none" stroke="#dddddd" stroke-width="1" stroke-opacity="1.0" ></path>
<path d="M-10.0,380L440,380" fill="none" stroke="#dddddd" stroke-width="1" stroke-opacity="1.0" ></path>
<path d="M-10.0,400L440,400" fill="none" stroke="#dddddd" stroke-width="1" stroke-opacity="1.0" ></path>
<path d="M-10.0,420L440,420" fill="none" stroke="#dddddd" stroke-width="1" stroke-opacity="1.0" ></path>
<path d="M10.0,-10.0Q0 -10.0 0 0.0L0,0.0L0,40.0Q0 50.0 10.0 50.0" fill="none" stroke="rgba(0, 100, 125, 1.0)" stroke-width="1" stroke-opacity="1.0" ></path>
<text x="-20.0" y="5.000000000000001" font-style="normal" font-weight="normal" font-family="Tahoma" alignment-baseline="middle" text-anchor="middle" stroke="none" fill="#888" fill-opacity="1.0" font-size="7"  transform="rotate(-90)" ><title>lhs</title>lhs</text><path d="M10.0,50.0Q0 50.0 0 60.0L0,60.0L0,100.0Q0 110.0 10.0 110.0" fill="none" stroke="rgba(0, 100, 125, 1.0)" stroke-width="1" stroke-opacity="1.0" ></path>
<text x="-80.0" y="5.000000000000005" font-style="normal" font-weight="normal" font-family="Tahoma" alignment-baseline="middle" text-anchor="middle" stroke="none" fill="#888" fill-opacity="1.0" font-size="7"  transform="rotate(-90)" ><title>rhs</title>rhs</text><rect x="16.0" y="-8.0" width="9.6" height="16.0" rx="0" ry="0" fill="white" stroke="none" fill-opacity="1.0" stroke-opacity="1.0" stroke-width="2" ></rect>
<path d="M16.0,-4.0L25.6,0L16.0,4.0" fill="none" stroke="black" stroke-width="2" stroke-opacity="1.0" ></path>
<text x="14.0" y="0" font-style="normal" font-weight="normal" font-family="Tahoma" alignment-baseline="middle" text-anchor="middle" stroke="none" fill="#888" fill-opacity="1.0" font-size="7" ><title>0</title>0</text><rect x="16.0" y="12.0" width="9.6" height="16.0" rx="0" ry="0" fill="#c8ff90" stroke="none" fill-opacity="1.0" stroke-opacity="1.0" stroke-width="2" ></rect>
<path d="M16.0,16.0L25.6,20L16.0,24.0" fill="none" stroke="black" stroke-width="2" stroke-opacity="1.0" ></path>
<text x="14.0" y="20" font-style="normal" font-weight="normal" font-family="Tahoma" alignment-baseline="middle" text-anchor="middle" stroke="none" fill="#888" fill-opacity="1.0" font-size="7" ><title>1</title>1</text><rect x="16.0" y="32.0" width="9.6" height="16.0" rx="0" ry="0" fill="#c8ff90" stroke="none" fill-opacity="1.0" stroke-opacity="1.0" stroke-width="2" ></rect>
<path d="M16.0,36.0L25.6,40L16.0,44.0" fill="none" stroke="black" stroke-width="2" stroke-opacity="1.0" ></path>
<text x="14.0" y="40" font-style="normal" font-weight="normal" font-family="Tahoma" alignment-baseline="middle" text-anchor="middle" stroke="none" fill="#888" fill-opacity="1.0" font-size="7" ><title>1</title>1</text><text x="20" y="-9.0" font-style="normal" font-weight="normal" font-family="Tahoma" alignment-baseline="middle" text-anchor="middle" stroke="none" fill="blue" fill-opacity="1.0" font-size="7" ><title>6</title>6</text><rect x="16.0" y="52.0" width="9.6" height="16.0" rx="0" ry="0" fill="#c8ff90" stroke="none" fill-opacity="1.0" stroke-opacity="1.0" stroke-width="2" ></rect>
<path d="M16.0,56.0L25.6,60L16.0,64.0" fill="none" stroke="black" stroke-width="2" stroke-opacity="1.0" ></path>
<text x="14.0" y="60" font-style="normal" font-weight="normal" font-family="Tahoma" alignment-baseline="middle" text-anchor="middle" stroke="none" fill="#888" fill-opacity="1.0" font-size="7" ><title>1</title>1</text><rect x="16.0" y="72.0" width="9.6" height="16.0" rx="0" ry="0" fill="white" stroke="none" fill-opacity="1.0" stroke-opacity="1.0" stroke-width="2" ></rect>
<path d="M16.0,76.0L25.6,80L16.0,84.0" fill="none" stroke="black" stroke-width="2" stroke-opacity="1.0" ></path>
<text x="14.0" y="80" font-style="normal" font-weight="normal" font-family="Tahoma" alignment-baseline="middle" text-anchor="middle" stroke="none" fill="#888" fill-opacity="1.0" font-size="7" ><title>0</title>0</text><rect x="16.0" y="92.0" width="9.6" height="16.0" rx="0" ry="0" fill="white" stroke="none" fill-opacity="1.0" stroke-opacity="1.0" stroke-width="2" ></rect>
<path d="M16.0,96.0L25.6,100L16.0,104.0" fill="none" stroke="black" stroke-width="2" stroke-opacity="1.0" ></path>
<text x="14.0" y="100" font-style="normal" font-weight="normal" font-family="Tahoma" alignment-baseline="middle" text-anchor="middle" stroke="none" fill="#888" fill-opacity="1.0" font-size="7" ><title>0</title>0</text><text x="20" y="51.0" font-style="normal" font-weight="normal" font-family="Tahoma" alignment-baseline="middle" text-anchor="middle" stroke="none" fill="blue" fill-opacity="1.0" font-size="7" ><title>1</title>1</text><path d="M70.0,110.0Q60 110.0 60 120.0L60,120.0L60,120.0Q60 130.0 70.0 130.0" fill="none" stroke="rgba(0, 100, 125, 1.0)" stroke-width="1" stroke-opacity="1.0" ></path>
<text x="-120.0" y="65.00000000000001" font-style="normal" font-weight="normal" font-family="Tahoma" alignment-baseline="middle" text-anchor="middle" stroke="none" fill="#888" fill-opacity="1.0" font-size="7"  transform="rotate(-90)" ><title>carry</title>carry</text><path d="M70.0,130.0Q60 130.0 60 140.0L60,140.0L60,180.0Q60 190.0 70.0 190.0" fill="none" stroke="rgba(0, 100, 125, 1.0)" stroke-width="1" stroke-opacity="1.0" ></path>
<text x="-160.0" y="65.00000000000001" font-style="normal" font-weight="normal" font-family="Tahoma" alignment-baseline="middle" text-anchor="middle" stroke="none" fill="#888" fill-opacity="1.0" font-size="7"  transform="rotate(-90)" ><title>aux</title>aux</text><path d="M80,60L80,140" fill="none" stroke="black" stroke-width="2" stroke-opacity="1.0" ></path>
<path d="M77.0,60a3.0,3.0 0 1,0  6.0,0a3.0,3.0 0 1,0 -6.0,0Z" fill="black" stroke="none" stroke-width="1.5" fill-opacity="1.0"></path>
<path d="M72.0,140a8.0,8.0 0 1,0  16.0,0a8.0,8.0 0 1,0 -16.0,0Z" fill="white" stroke="none" stroke-width="2" fill-opacity="1.0"></path>
<path d="M72.0,140a8.0,8.0 0 1,0  16.0,0a8.0,8.0 0 1,0 -16.0,0Z" fill="none" stroke="black" stroke-width="2" stroke-opacity="1.0" ></path>
<path d="M72.0,140L88.0,140M80,132.0L80,148.0" fill="none" stroke="black" stroke-width="2" stroke-opacity="1.0" ></path>
<path d="M100,0L100,60" fill="none" stroke="black" stroke-width="2" stroke-opacity="1.0" ></path>
<path d="M97.0,0a3.0,3.0 0 1,0  6.0,0a3.0,3.0 0 1,0 -6.0,0Z" fill="black" stroke="none" stroke-width="1.5" fill-opacity="1.0"></path>
<path d="M92.0,60a8.0,8.0 0 1,0  16.0,0a8.0,8.0 0 1,0 -16.0,0Z" fill="white" stroke="none" stroke-width="2" fill-opacity="1.0"></path>
<path d="M92.0,60a8.0,8.0 0 1,0  16.0,0a8.0,8.0 0 1,0 -16.0,0Z" fill="none" stroke="black" stroke-width="2" stroke-opacity="1.0" ></path>
<path d="M92.0,60L108.0,60M100,52.0L100,68.0" fill="none" stroke="black" stroke-width="2" stroke-opacity="1.0" ></path>
<path d="M120,0L120,120" fill="none" stroke="black" stroke-width="2" stroke-opacity="1.0" ></path>
<path d="M117.0,0a3.0,3.0 0 1,0  6.0,0a3.0,3.0 0 1,0 -6.0,0Z" fill="black" stroke="none" stroke-width="1.5" fill-opacity="1.0"></path>
<path d="M112.0,120a8.0,8.0 0 1,0  16.0,0a8.0,8.0 0 1,0 -16.0,0Z" fill="white" stroke="none" stroke-width="2" fill-opacity="1.0"></path>
<path d="M112.0,120a8.0,8.0 0 1,0  16.0,0a8.0,8.0 0 1,0 -16.0,0Z" fill="none" stroke="black" stroke-width="2" stroke-opacity="1.0" ></path>
<path d="M112.0,120L128.0,120M120,112.0L120,128.0" fill="none" stroke="black" stroke-width="2" stroke-opacity="1.0" ></path>
<path d="M140,0L140,120" fill="none" stroke="black" stroke-width="2" stroke-opacity="1.0" ></path>
<path d="M137.0,60a3.0,3.0 0 1,0  6.0,0a3.0,3.0 0 1,0 -6.0,0Z" fill="black" stroke="none" stroke-width="1.5" fill-opacity="1.0"></path>
<path d="M137.0,120a3.0,3.0 0 1,0  6.0,0a3.0,3.0 0 1,0 -6.0,0Z" fill="black" stroke="none" stroke-width="1.5" fill-opacity="1.0"></path>
<path d="M132.0,0a8.0,8.0 0 1,0  16.0,0a8.0,8.0 0 1,0 -16.0,0Z" fill="white" stroke="none" stroke-width="2" fill-opacity="1.0"></path>
<path d="M132.0,0a8.0,8.0 0 1,0  16.0,0a8.0,8.0 0 1,0 -16.0,0Z" fill="none" stroke="black" stroke-width="2" stroke-opacity="1.0" ></path>
<path d="M132.0,0L148.0,0M140,-8.0L140,8.0" fill="none" stroke="black" stroke-width="2" stroke-opacity="1.0" ></path>
<path d="M160,0L160,140" fill="none" stroke="black" stroke-width="2" stroke-opacity="1.0" ></path>
<path d="M157.0,140a3.0,3.0 0 1,0  6.0,0a3.0,3.0 0 1,0 -6.0,0Z" fill="black" stroke="none" stroke-width="1.5" fill-opacity="1.0"></path>
<path d="M152.0,0a8.0,8.0 0 1,0  16.0,0a8.0,8.0 0 1,0 -16.0,0Z" fill="white" stroke="none" stroke-width="2" fill-opacity="1.0"></path>
<path d="M152.0,0a8.0,8.0 0 1,0  16.0,0a8.0,8.0 0 1,0 -16.0,0Z" fill="none" stroke="black" stroke-width="2" stroke-opacity="1.0" ></path>
<path d="M152.0,0L168.0,0M160,-8.0L160,8.0" fill="none" stroke="black" stroke-width="2" stroke-opacity="1.0" ></path>
<path d="M180,60L180,140" fill="none" stroke="black" stroke-width="2" stroke-opacity="1.0" ></path>
<path d="M177.0,140a3.0,3.0 0 1,0  6.0,0a3.0,3.0 0 1,0 -6.0,0Z" fill="black" stroke="none" stroke-width="1.5" fill-opacity="1.0"></path>
<path d="M172.0,60a8.0,8.0 0 1,0  16.0,0a8.0,8.0 0 1,0 -16.0,0Z" fill="white" stroke="none" stroke-width="2" fill-opacity="1.0"></path>
<path d="M172.0,60a8.0,8.0 0 1,0  16.0,0a8.0,8.0 0 1,0 -16.0,0Z" fill="none" stroke="black" stroke-width="2" stroke-opacity="1.0" ></path>
<path d="M172.0,60L188.0,60M180,52.0L180,68.0" fill="none" stroke="black" stroke-width="2" stroke-opacity="1.0" ></path>
<path d="M200,80L200,160" fill="none" stroke="black" stroke-width="2" stroke-opacity="1.0" ></path>
<path d="M197.0,80a3.0,3.0 0 1,0  6.0,0a3.0,3.0 0 1,0 -6.0,0Z" fill="black" stroke="none" stroke-width="1.5" fill-opacity="1.0"></path>
<path d="M192.0,160a8.0,8.0 0 1,0  16.0,0a8.0,8.0 0 1,0 -16.0,0Z" fill="white" stroke="none" stroke-width="2" fill-opacity="1.0"></path>
<path d="M192.0,160a8.0,8.0 0 1,0  16.0,0a8.0,8.0 0 1,0 -16.0,0Z" fill="none" stroke="black" stroke-width="2" stroke-opacity="1.0" ></path>
<path d="M192.0,160L208.0,160M200,152.0L200,168.0" fill="none" stroke="black" stroke-width="2" stroke-opacity="1.0" ></path>
<path d="M220,20L220,80" fill="none" stroke="black" stroke-width="2" stroke-opacity="1.0" ></path>
<path d="M217.0,20a3.0,3.0 0 1,0  6.0,0a3.0,3.0 0 1,0 -6.0,0Z" fill="black" stroke="none" stroke-width="1.5" fill-opacity="1.0"></path>
<path d="M212.0,80a8.0,8.0 0 1,0  16.0,0a8.0,8.0 0 1,0 -16.0,0Z" fill="white" stroke="none" stroke-width="2" fill-opacity="1.0"></path>
<path d="M212.0,80a8.0,8.0 0 1,0  16.0,0a8.0,8.0 0 1,0 -16.0,0Z" fill="none" stroke="black" stroke-width="2" stroke-opacity="1.0" ></path>
<path d="M212.0,80L228.0,80M220,72.0L220,88.0" fill="none" stroke="black" stroke-width="2" stroke-opacity="1.0" ></path>
<path d="M240,0L240,20" fill="none" stroke="black" stroke-width="2" stroke-opacity="1.0" ></path>
<path d="M237.0,20a3.0,3.0 0 1,0  6.0,0a3.0,3.0 0 1,0 -6.0,0Z" fill="black" stroke="none" stroke-width="1.5" fill-opacity="1.0"></path>
<path d="M232.0,0a8.0,8.0 0 1,0  16.0,0a8.0,8.0 0 1,0 -16.0,0Z" fill="white" stroke="none" stroke-width="2" fill-opacity="1.0"></path>
<path d="M232.0,0a8.0,8.0 0 1,0  16.0,0a8.0,8.0 0 1,0 -16.0,0Z" fill="none" stroke="black" stroke-width="2" stroke-opacity="1.0" ></path>
<path d="M232.0,0L248.0,0M240,-8.0L240,8.0" fill="none" stroke="black" stroke-width="2" stroke-opacity="1.0" ></path>
<path d="M260,0L260,80" fill="none" stroke="black" stroke-width="2" stroke-opacity="1.0" ></path>
<path d="M257.0,0a3.0,3.0 0 1,0  6.0,0a3.0,3.0 0 1,0 -6.0,0Z" fill="black" stroke="none" stroke-width="1.5" fill-opacity="1.0"></path>
<path d="M257.0,80a3.0,3.0 0 1,0  6.0,0a3.0,3.0 0 1,0 -6.0,0Z" fill="black" stroke="none" stroke-width="1.5" fill-opacity="1.0"></path>
<path d="M252.0,20a8.0,8.0 0 1,0  16.0,0a8.0,8.0 0 1,0 -16.0,0Z" fill="white" stroke="none" stroke-width="2" fill-opacity="1.0"></path>
<path d="M252.0,20a8.0,8.0 0 1,0  16.0,0a8.0,8.0 0 1,0 -16.0,0Z" fill="none" stroke="black" stroke-width="2" stroke-opacity="1.0" ></path>
<path d="M252.0,20L268.0,20M260,12.0L260,28.0" fill="none" stroke="black" stroke-width="2" stroke-opacity="1.0" ></path>
<path d="M280,20L280,160" fill="none" stroke="black" stroke-width="2" stroke-opacity="1.0" ></path>
<path d="M277.0,160a3.0,3.0 0 1,0  6.0,0a3.0,3.0 0 1,0 -6.0,0Z" fill="black" stroke="none" stroke-width="1.5" fill-opacity="1.0"></path>
<path d="M272.0,20a8.0,8.0 0 1,0  16.0,0a8.0,8.0 0 1,0 -16.0,0Z" fill="white" stroke="none" stroke-width="2" fill-opacity="1.0"></path>
<path d="M272.0,20a8.0,8.0 0 1,0  16.0,0a8.0,8.0 0 1,0 -16.0,0Z" fill="none" stroke="black" stroke-width="2" stroke-opacity="1.0" ></path>
<path d="M272.0,20L288.0,20M280,12.0L280,28.0" fill="none" stroke="black" stroke-width="2" stroke-opacity="1.0" ></path>
<path d="M300,80L300,160" fill="none" stroke="black" stroke-width="2" stroke-opacity="1.0" ></path>
<path d="M297.0,160a3.0,3.0 0 1,0  6.0,0a3.0,3.0 0 1,0 -6.0,0Z" fill="black" stroke="none" stroke-width="1.5" fill-opacity="1.0"></path>
<path d="M292.0,80a8.0,8.0 0 1,0  16.0,0a8.0,8.0 0 1,0 -16.0,0Z" fill="white" stroke="none" stroke-width="2" fill-opacity="1.0"></path>
<path d="M292.0,80a8.0,8.0 0 1,0  16.0,0a8.0,8.0 0 1,0 -16.0,0Z" fill="none" stroke="black" stroke-width="2" stroke-opacity="1.0" ></path>
<path d="M292.0,80L308.0,80M300,72.0L300,88.0" fill="none" stroke="black" stroke-width="2" stroke-opacity="1.0" ></path>
<path d="M320,100L320,180" fill="none" stroke="black" stroke-width="2" stroke-opacity="1.0" ></path>
<path d="M317.0,100a3.0,3.0 0 1,0  6.0,0a3.0,3.0 0 1,0 -6.0,0Z" fill="black" stroke="none" stroke-width="1.5" fill-opacity="1.0"></path>
<path d="M312.0,180a8.0,8.0 0 1,0  16.0,0a8.0,8.0 0 1,0 -16.0,0Z" fill="white" stroke="none" stroke-width="2" fill-opacity="1.0"></path>
<path d="M312.0,180a8.0,8.0 0 1,0  16.0,0a8.0,8.0 0 1,0 -16.0,0Z" fill="none" stroke="black" stroke-width="2" stroke-opacity="1.0" ></path>
<path d="M312.0,180L328.0,180M320,172.0L320,188.0" fill="none" stroke="black" stroke-width="2" stroke-opacity="1.0" ></path>
<path d="M340,40L340,100" fill="none" stroke="black" stroke-width="2" stroke-opacity="1.0" ></path>
<path d="M337.0,40a3.0,3.0 0 1,0  6.0,0a3.0,3.0 0 1,0 -6.0,0Z" fill="black" stroke="none" stroke-width="1.5" fill-opacity="1.0"></path>
<path d="M332.0,100a8.0,8.0 0 1,0  16.0,0a8.0,8.0 0 1,0 -16.0,0Z" fill="white" stroke="none" stroke-width="2" fill-opacity="1.0"></path>
<path d="M332.0,100a8.0,8.0 0 1,0  16.0,0a8.0,8.0 0 1,0 -16.0,0Z" fill="none" stroke="black" stroke-width="2" stroke-opacity="1.0" ></path>
<path d="M332.0,100L348.0,100M340,92.0L340,108.0" fill="none" stroke="black" stroke-width="2" stroke-opacity="1.0" ></path>
<path d="M360,20L360,40" fill="none" stroke="black" stroke-width="2" stroke-opacity="1.0" ></path>
<path d="M357.0,40a3.0,3.0 0 1,0  6.0,0a3.0,3.0 0 1,0 -6.0,0Z" fill="black" stroke="none" stroke-width="1.5" fill-opacity="1.0"></path>
<path d="M352.0,20a8.0,8.0 0 1,0  16.0,0a8.0,8.0 0 1,0 -16.0,0Z" fill="white" stroke="none" stroke-width="2" fill-opacity="1.0"></path>
<path d="M352.0,20a8.0,8.0 0 1,0  16.0,0a8.0,8.0 0 1,0 -16.0,0Z" fill="none" stroke="black" stroke-width="2" stroke-opacity="1.0" ></path>
<path d="M352.0,20L368.0,20M360,12.0L360,28.0" fill="none" stroke="black" stroke-width="2" stroke-opacity="1.0" ></path>
<path d="M380,20L380,100" fill="none" stroke="black" stroke-width="2" stroke-opacity="1.0" ></path>
<path d="M377.0,20a3.0,3.0 0 1,0  6.0,0a3.0,3.0 0 1,0 -6.0,0Z" fill="black" stroke="none" stroke-width="1.5" fill-opacity="1.0"></path>
<path d="M377.0,100a3.0,3.0 0 1,0  6.0,0a3.0,3.0 0 1,0 -6.0,0Z" fill="black" stroke="none" stroke-width="1.5" fill-opacity="1.0"></path>
<path d="M372.0,40a8.0,8.0 0 1,0  16.0,0a8.0,8.0 0 1,0 -16.0,0Z" fill="white" stroke="none" stroke-width="2" fill-opacity="1.0"></path>
<path d="M372.0,40a8.0,8.0 0 1,0  16.0,0a8.0,8.0 0 1,0 -16.0,0Z" fill="none" stroke="black" stroke-width="2" stroke-opacity="1.0" ></path>
<path d="M372.0,40L388.0,40M380,32.0L380,48.0" fill="none" stroke="black" stroke-width="2" stroke-opacity="1.0" ></path>
<path d="M400,20L400,180" fill="none" stroke="black" stroke-width="2" stroke-opacity="1.0" ></path>
<path d="M397.0,180a3.0,3.0 0 1,0  6.0,0a3.0,3.0 0 1,0 -6.0,0Z" fill="black" stroke="none" stroke-width="1.5" fill-opacity="1.0"></path>
<path d="M392.0,20a8.0,8.0 0 1,0  16.0,0a8.0,8.0 0 1,0 -16.0,0Z" fill="white" stroke="none" stroke-width="2" fill-opacity="1.0"></path>
<path d="M392.0,20a8.0,8.0 0 1,0  16.0,0a8.0,8.0 0 1,0 -16.0,0Z" fill="none" stroke="black" stroke-width="2" stroke-opacity="1.0" ></path>
<path d="M392.0,20L408.0,20M400,12.0L400,28.0" fill="none" stroke="black" stroke-width="2" stroke-opacity="1.0" ></path>
<path d="M420,100L420,180" fill="none" stroke="black" stroke-width="2" stroke-opacity="1.0" ></path>
<path d="M417.0,180a3.0,3.0 0 1,0  6.0,0a3.0,3.0 0 1,0 -6.0,0Z" fill="black" stroke="none" stroke-width="1.5" fill-opacity="1.0"></path>
<path d="M412.0,100a8.0,8.0 0 1,0  16.0,0a8.0,8.0 0 1,0 -16.0,0Z" fill="white" stroke="none" stroke-width="2" fill-opacity="1.0"></path>
<path d="M412.0,100a8.0,8.0 0 1,0  16.0,0a8.0,8.0 0 1,0 -16.0,0Z" fill="none" stroke="black" stroke-width="2" stroke-opacity="1.0" ></path>
<path d="M412.0,100L428.0,100M420,92.0L420,108.0" fill="none" stroke="black" stroke-width="2" stroke-opacity="1.0" ></path>
<rect x="32.0" y="-30.0" width="416.0" height="219.0" rx="0" ry="0" fill="green" stroke="none" fill-opacity="0.15" stroke-opacity="0.15" stroke-width="2" ></rect>
<path d="M32.0,-30.0L32.0,189.0" fill="none" stroke="green" stroke-width="2.0" stroke-opacity="1.0" ></path>
<text x="240.0" y="-30.0" font-style="italic" font-weight="bold" font-family="Tahoma" alignment-baseline="middle" text-anchor="middle" stroke="none" fill="black" fill-opacity="1.0" font-size="6" ><title>WangAdd</title>WangAdd</text><text x="240.0" y="-24.0" font-style="italic" font-weight="bold" font-family="Tahoma" alignment-baseline="middle" text-anchor="middle" stroke="none" fill="black" fill-opacity="1.0" font-size="6" ><title>compute cs:100</title>compute cs:100</text></g>
</svg>
